<svg width="1100" height="900" viewBox="0 0 1100 900" fill="none" xmlns="http://www.w3.org/2000/svg">
<circle cx="250" cy="150" r="50" fill="#ED2E38"/>
<circle cx="50" cy="150" r="50" fill="#ED2E38"/>
<circle cx="250" cy="350" r="50" fill="#ED2E38"/>
<circle cx="50" cy="350" r="50" fill="#ED2E38"/>
<circle cx="250" cy="550" r="50" fill="#ED2E38"/>
<circle cx="50" cy="550" r="50" fill="#ED2E38"/>
<circle cx="250" cy="750" r="50" fill="#ED2E38"/>
<circle cx="50" cy="750" r="50" fill="#ED2E38"/>
<circle cx="250" cy="50" r="50" fill="black"/>
<circle cx="50" cy="50" r="50" fill="#ED2E38"/>
<circle cx="250" cy="250" r="50" fill="#ED2E38"/>
<circle cx="50" cy="250" r="50" fill="#ED2E38"/>
<circle cx="250" cy="450" r="50" fill="#ED2E38"/>
<circle cx="50" cy="450" r="50" fill="#ED2E38"/>
<circle cx="250" cy="650" r="50" fill="#ED2E38"/>
<circle cx="50" cy="650" r="50" fill="#ED2E38"/>
<circle cx="250" cy="850" r="50" fill="#009639"/>
<circle cx="50" cy="850" r="50" fill="#ED2E38"/>
<circle cx="350" cy="150" r="50" fill="black"/>
<circle cx="150" cy="150" r="50" fill="#ED2E38"/>
<circle cx="350" cy="350" r="50" fill="#ED2E38"/>
<circle cx="150" cy="350" r="50" fill="#ED2E38"/>
<circle cx="350" cy="550" r="50" fill="#ED2E38"/>
<circle cx="150" cy="550" r="50" fill="#ED2E38"/>
<circle cx="350" cy="750" r="50" fill="#009639"/>
<circle cx="150" cy="750" r="50" fill="#ED2E38"/>
<circle cx="350" cy="50" r="50" fill="black"/>
<circle cx="150" cy="50" r="50" fill="#ED2E38"/>
<circle cx="350" cy="250" r="50" fill="#ED2E38"/>
<circle cx="150" cy="250" r="50" fill="#ED2E38"/>
<circle cx="350" cy="450" r="50" fill="#ED2E38"/>
<circle cx="150" cy="450" r="50" fill="#ED2E38"/>
<circle cx="350" cy="650" r="50" fill="#ED2E38"/>
<circle cx="150" cy="650" r="50" fill="#ED2E38"/>
<circle cx="350" cy="850" r="50" fill="#009639"/>
<circle cx="150" cy="850" r="50" fill="#ED2E38"/>
<circle cx="450" cy="150" r="50" fill="black"/>
<circle cx="450" cy="350" r="50" fill="#ED2E38"/>
<circle cx="450" cy="550" r="50" fill="#ED2E38"/>
<circle cx="450" cy="750" r="50" fill="#009639"/>
<circle cx="450" cy="50" r="50" fill="black"/>
<circle cx="450" cy="250" r="50" fill="black"/>
<circle cx="450" cy="450" r="50" fill="#ED2E38"/>
<circle cx="450" cy="650" r="50" fill="#009639"/>
<circle cx="450" cy="850" r="50" fill="#009639"/>
<circle cx="550" cy="150" r="50" fill="black"/>
<circle cx="550" cy="350" r="50" fill="white"/>
<circle cx="550" cy="550" r="50" fill="white"/>
<circle cx="550" cy="750" r="50" fill="#009639"/>
<circle cx="550" cy="50" r="50" fill="black"/>
<circle cx="550" cy="250" r="50" fill="black"/>
<circle cx="550" cy="450" r="50" fill="#ED2E38"/>
<circle cx="550" cy="650" r="50" fill="#009639"/>
<circle cx="550" cy="850" r="50" fill="#009639"/>
<circle cx="650" cy="150" r="50" fill="black"/>
<circle cx="650" cy="350" r="50" fill="white"/>
<circle cx="650" cy="550" r="50" fill="white"/>
<circle cx="650" cy="750" r="50" fill="#009639"/>
<circle cx="650" cy="50" r="50" fill="black"/>
<circle cx="650" cy="250" r="50" fill="black"/>
<circle cx="650" cy="450" r="50" fill="white"/>
<circle cx="650" cy="650" r="50" fill="#009639"/>
<circle cx="650" cy="850" r="50" fill="#009639"/>
<circle cx="750" cy="150" r="50" fill="black"/>
<circle cx="750" cy="350" r="50" fill="white"/>
<circle cx="750" cy="550" r="50" fill="white"/>
<circle cx="750" cy="750" r="50" fill="#009639"/>
<circle cx="750" cy="50" r="50" fill="black"/>
<circle cx="750" cy="250" r="50" fill="black"/>
<circle cx="750" cy="450" r="50" fill="white"/>
<circle cx="750" cy="650" r="50" fill="#009639"/>
<circle cx="750" cy="850" r="50" fill="#009639"/>
<circle cx="850" cy="150" r="50" fill="black"/>
<circle cx="850" cy="350" r="50" fill="white"/>
<circle cx="850" cy="550" r="50" fill="white"/>
<circle cx="850" cy="750" r="50" fill="#009639"/>
<circle cx="850" cy="50" r="50" fill="black"/>
<circle cx="850" cy="250" r="50" fill="black"/>
<circle cx="850" cy="450" r="50" fill="white"/>
<circle cx="850" cy="650" r="50" fill="#009639"/>
<circle cx="850" cy="850" r="50" fill="#009639"/>
<circle cx="950" cy="150" r="50" fill="black"/>
<circle cx="950" cy="350" r="50" fill="white"/>
<circle cx="950" cy="550" r="50" fill="white"/>
<circle cx="950" cy="750" r="50" fill="#009639"/>
<circle cx="950" cy="50" r="50" fill="black"/>
<circle cx="950" cy="250" r="50" fill="black"/>
<circle cx="950" cy="450" r="50" fill="white"/>
<circle cx="950" cy="650" r="50" fill="#009639"/>
<circle cx="950" cy="850" r="50" fill="#009639"/>
<circle cx="1050" cy="150" r="50" fill="black"/>
<circle cx="1050" cy="350" r="50" fill="white"/>
<circle cx="1050" cy="550" r="50" fill="white"/>
<circle cx="1050" cy="750" r="50" fill="#009639"/>
<circle cx="1050" cy="50" r="50" fill="black"/>
<circle cx="1050" cy="250" r="50" fill="black"/>
<circle cx="1050" cy="450" r="50" fill="white"/>
<circle cx="1050" cy="650" r="50" fill="#009639"/>
<circle cx="1050" cy="850" r="50" fill="#009639"/>
</svg>
