<svg width="879" height="1088" viewBox="0 0 879 1088" fill="none" xmlns="http://www.w3.org/2000/svg">
<rect width="879" height="1088" rx="100" fill="#21212C"/>
<path d="M555.968 297.71L600.685 233.075L619.938 202L697.468 274.197L721.793 310.14L722 350.226L706.163 378.298L654.511 390.624L635.464 379.54L619.834 368.664L612.174 366.178L601.202 364.728L596.441 361.724L591.679 353.748L590.126 342.872L587.746 336.243L582.26 328.474L561.764 306.204L555.968 297.71Z" fill="white"/>
<path d="M489.41 550.557L488.168 524.869L481.026 497.834L475.126 488.718L469.226 485.818L442.83 478.153L411.259 476.806L421.61 462.305L435.481 446.042L474.712 402.641L555.968 297.713L561.765 306.206L582.26 328.477L587.746 336.245L590.127 342.874L591.679 353.75L596.441 361.727L601.203 364.731L612.175 366.18L619.835 368.666L635.465 379.543L654.511 390.626L489.41 550.557Z" fill="white"/>
<path d="M408.671 664.188L392.523 661.598L387.762 658.698L372.546 643.471L368.716 640.985L310.75 619.958L299.881 613.64L293.256 606.285L309.611 591.266L342.838 556.566L369.13 527.666L411.259 476.807L442.83 478.154L469.225 485.819L475.125 488.719L481.026 497.834L488.168 524.87L489.41 550.558L475.125 564.334L415.71 640.778L408.671 664.188Z" fill="white"/>
<path d="M319.341 902.117L308.679 877.568L298.949 833.338L296.361 826.502L293.153 822.565L286.942 818.318L251.645 801.02L224.525 785.172L172.148 746.432L159.934 740.839L213.035 688.944L274.003 623.687L293.256 606.285L299.881 613.64L310.75 619.958L368.716 640.985L372.546 643.471L387.762 658.698L392.524 661.598L408.671 664.188L400.08 692.984L404.531 752.958L404.945 808.996L385.278 845.146L319.341 902.117Z" fill="white"/>
<path d="M225.56 974L156 743.84L159.933 740.836L172.148 746.429L224.524 785.169L251.644 801.018L286.942 818.316L293.152 822.563L296.361 826.499L298.949 833.335L308.679 877.565L319.341 902.114L305.884 913.715L225.56 974Z" fill="white"/>
<path d="M210.5 766C220.717 766 229 757.717 229 747.5C229 737.283 220.717 729 210.5 729C200.283 729 192 737.283 192 747.5C192 757.717 200.283 766 210.5 766Z" fill="#ED2E38"/>
<path d="M623.5 291C633.717 291 642 282.717 642 272.5C642 262.283 633.717 254 623.5 254C613.283 254 605 262.283 605 272.5C605 282.717 613.283 291 623.5 291Z" fill="#ED2E38"/>
<path d="M561.5 395C571.717 395 580 386.717 580 376.5C580 366.283 571.717 358 561.5 358C551.283 358 543 366.283 543 376.5C543 386.717 551.283 395 561.5 395Z" fill="#ED2E38"/>
<path d="M499.5 499C509.717 499 518 490.717 518 480.5C518 470.283 509.717 462 499.5 462C489.283 462 481 470.283 481 480.5C481 490.717 489.283 499 499.5 499Z" fill="#ED2E38"/>
<path d="M412.5 606C422.717 606 431 597.717 431 587.5C431 577.283 422.717 569 412.5 569C402.283 569 394 577.283 394 587.5C394 597.717 402.283 606 412.5 606Z" fill="#ED2E38"/>
<path d="M285.5 689C295.717 689 304 680.717 304 670.5C304 660.283 295.717 652 285.5 652C275.283 652 267 660.283 267 670.5C267 680.717 275.283 689 285.5 689Z" fill="#ED2E38"/>
<path d="M420.5 530C430.717 530 439 521.717 439 511.5C439 501.283 430.717 493 420.5 493C410.283 493 402 501.283 402 511.5C402 521.717 410.283 530 420.5 530Z" fill="#ED2E38"/>
<path d="M660.5 376C670.717 376 679 367.717 679 357.5C679 347.283 670.717 339 660.5 339C650.283 339 642 347.283 642 357.5C642 367.717 650.283 376 660.5 376Z" fill="#ED2E38"/>
<path d="M375.5 707C385.717 707 394 698.717 394 688.5C394 678.283 385.717 670 375.5 670C365.283 670 357 678.283 357 688.5C357 698.717 365.283 707 375.5 707Z" fill="#ED2E38"/>
<path d="M313.5 811C323.717 811 332 802.717 332 792.5C332 782.283 323.717 774 313.5 774C303.283 774 295 782.283 295 792.5C295 802.717 303.283 811 313.5 811Z" fill="#ED2E38"/>
<path d="M251.5 915C261.717 915 270 906.717 270 896.5C270 886.283 261.717 878 251.5 878C241.283 878 233 886.283 233 896.5C233 906.717 241.283 915 251.5 915Z" fill="#ED2E38"/>
</svg>
