<svg width="879" height="1088" viewBox="0 0 879 1088" fill="none" xmlns="http://www.w3.org/2000/svg">
<rect width="879" height="1088" rx="100" fill="#21212C"/>
<path d="M555.968 297.71L600.685 233.075L619.938 202L697.468 274.197L721.793 310.14L722 350.226L706.163 378.298L654.511 390.624L635.464 379.54L619.834 368.664L612.174 366.178L601.202 364.728L596.441 361.724L591.679 353.748L590.126 342.872L587.746 336.243L582.26 328.474L561.764 306.204L555.968 297.71Z" fill="white"/>
<path d="M489.41 550.557L488.168 524.869L481.026 497.833L475.126 488.718L469.226 485.818L442.83 478.153L411.259 476.806L421.61 462.305L435.481 446.042L474.712 402.641L555.968 297.712L561.765 306.206L582.26 328.476L587.746 336.245L590.127 342.874L591.679 353.75L596.441 361.726L601.203 364.73L612.175 366.18L619.835 368.666L635.465 379.542L654.511 390.626L489.41 550.557Z" fill="white"/>
<path d="M408.671 664.188L392.523 661.598L387.762 658.698L372.546 643.471L368.716 640.985L310.75 619.958L299.881 613.64L293.256 606.285L309.611 591.266L342.838 556.566L369.13 527.666L411.259 476.807L442.83 478.154L469.225 485.819L475.125 488.719L481.026 497.834L488.168 524.87L489.41 550.558L475.125 564.334L415.71 640.778L408.671 664.188Z" fill="white"/>
<path d="M319.341 902.117L308.679 877.568L298.949 833.338L296.361 826.502L293.153 822.565L286.942 818.318L251.645 801.02L224.525 785.172L172.148 746.432L159.934 740.839L213.035 688.944L274.003 623.687L293.256 606.285L299.881 613.64L310.75 619.958L368.716 640.985L372.546 643.471L387.762 658.698L392.524 661.598L408.671 664.188L400.08 692.984L404.531 752.958L404.945 808.996L385.278 845.146L319.341 902.117Z" fill="white"/>
<path d="M225.56 974L156 743.84L159.933 740.836L172.148 746.429L224.524 785.169L251.644 801.017L286.942 818.315L293.152 822.562L296.361 826.499L298.949 833.335L308.679 877.565L319.341 902.114L305.884 913.715L225.56 974Z" fill="white"/>
<path d="M217.5 780C231.583 780 243 768.583 243 754.5C243 740.417 231.583 729 217.5 729C203.417 729 192 740.417 192 754.5C192 768.583 203.417 780 217.5 780Z" fill="#ED2E38"/>
<path d="M255.5 893C269.583 893 281 881.583 281 867.5C281 853.417 269.583 842 255.5 842C241.417 842 230 853.417 230 867.5C230 881.583 241.417 893 255.5 893Z" fill="#ED2E38"/>
<path d="M359.5 821C373.583 821 385 809.583 385 795.5C385 781.417 373.583 770 359.5 770C345.417 770 334 781.417 334 795.5C334 809.583 345.417 821 359.5 821Z" fill="#ED2E38"/>
<path d="M281.5 695C295.583 695 307 683.583 307 669.5C307 655.417 295.583 644 281.5 644C267.417 644 256 655.417 256 669.5C256 683.583 267.417 695 281.5 695Z" fill="#ED2E38"/>
<path d="M358.5 746C372.583 746 384 734.583 384 720.5C384 706.417 372.583 695 358.5 695C344.417 695 333 706.417 333 720.5C333 734.583 344.417 746 358.5 746Z" fill="#ED2E38"/>
<path d="M431.5 544C445.583 544 457 532.583 457 518.5C457 504.417 445.583 493 431.5 493C417.417 493 406 504.417 406 518.5C406 532.583 417.417 544 431.5 544Z" fill="#ED2E38"/>
<path d="M529.5 413C543.583 413 555 401.583 555 387.5C555 373.417 543.583 362 529.5 362C515.417 362 504 373.417 504 387.5C504 401.583 515.417 413 529.5 413Z" fill="#ED2E38"/>
<path d="M627.5 282C641.583 282 653 270.583 653 256.5C653 242.417 641.583 231 627.5 231C613.417 231 602 242.417 602 256.5C602 270.583 613.417 282 627.5 282Z" fill="#ED2E38"/>
<path d="M678.5 362C692.583 362 704 350.583 704 336.5C704 322.417 692.583 311 678.5 311C664.417 311 653 322.417 653 336.5C653 350.583 664.417 362 678.5 362Z" fill="#ED2E38"/>
<path d="M515.5 493C529.583 493 541 481.583 541 467.5C541 453.417 529.583 442 515.5 442C501.417 442 490 453.417 490 467.5C490 481.583 501.417 493 515.5 493Z" fill="#ED2E38"/>
<path d="M384.5 624C398.583 624 410 612.583 410 598.5C410 584.417 398.583 573 384.5 573C370.417 573 359 584.417 359 598.5C359 612.583 370.417 624 384.5 624Z" fill="#ED2E38"/>
<path d="M282.5 821C296.583 821 308 809.583 308 795.5C308 781.417 296.583 770 282.5 770C268.417 770 257 781.417 257 795.5C257 809.583 268.417 821 282.5 821Z" fill="#ED2E38"/>
</svg>
