<svg width="839" height="906" viewBox="0 0 839 906" fill="none" xmlns="http://www.w3.org/2000/svg">
<g clip-path="url(#clip0_94_171)">
<path d="M837.664 1.27588H1.27588V904.513H837.664V1.27588Z" fill="#C8E9EF" stroke="#C8E9EF" stroke-width="2.55187" stroke-linecap="round" stroke-linejoin="round"/>
<path d="M-10.0052 713.696C-10.0052 713.696 17.9255 692.13 29.8321 684.715C46.3703 674.415 58.4085 664.712 62.295 661.02C66.1816 657.328 81.9222 641.782 83.4768 639.644C85.0314 637.507 92.6102 633.814 94.7478 631.482C96.8855 629.15 113.403 614.576 117.29 609.329C121.177 604.082 133.613 590.673 138.86 585.621C144.107 580.568 155.573 571.046 159.07 566.188C162.568 561.33 174.034 551.808 177.532 547.921C181.03 544.035 203.96 519.938 209.207 513.331C214.454 506.724 235.83 486.125 238.551 482.044C241.271 477.963 255.069 463.777 263.23 458.142C271.392 452.506 297.432 426.077 301.513 421.219C305.594 416.361 334.16 382.742 339.99 374.969C345.82 367.196 371.277 336.492 382.548 322.112C393.819 307.732 430.741 260.704 438.514 254.291C446.288 247.878 460.279 229.029 467.275 219.312C474.271 209.596 506.141 166.455 511.193 160.042C516.246 153.629 536.067 126.618 556.277 96.3025C576.487 65.9873 596.503 31.5912 603.305 21.0975C610.106 10.6038 614.964 -1.44458 614.964 -1.44458H842.328V908.789H-11.5497L-10.0052 713.696Z" fill="#F4ECDE" stroke="black" stroke-width="2.55187"/>
<path d="M75.3306 648.175C79.32 644.165 82.7885 640.59 83.4768 639.644C85.0314 637.507 92.6102 633.814 94.7478 631.482C96.8854 629.15 113.403 614.576 117.29 609.329C121.176 604.082 133.613 590.673 138.86 585.621C144.107 580.568 155.573 571.046 159.07 566.188C162.568 561.33 174.034 551.808 177.532 547.921C181.03 544.035 203.96 519.938 209.207 513.331C214.454 506.724 235.83 486.125 238.551 482.044C241.271 477.963 255.069 463.777 263.23 458.142C271.392 452.506 297.432 426.077 301.513 421.219C305.594 416.361 334.16 382.742 339.99 374.969C345.82 367.196 371.277 336.492 382.548 322.112C393.819 307.732 430.741 260.704 438.514 254.291C446.288 247.878 460.279 229.029 467.275 219.312C474.271 209.596 506.141 166.455 511.193 160.042C516.246 153.629 536.067 126.618 556.277 96.3025C573.386 70.639 590.356 42.0509 599.287 27.5154C599.287 27.5154 609.285 39.5262 630.333 54.7279C651.382 69.9295 684.319 97.7993 691.724 102.867C699.13 107.934 722.713 127.618 728.365 131.906C734.016 136.193 752.141 147.497 749.218 156.657C746.295 165.817 735.186 172.833 729.534 185.306C723.882 197.78 711.993 214.346 699.715 218.243C687.437 222.141 678.667 229.157 673.21 232.081C667.753 235.004 660.542 240.266 650.992 239.877C641.442 239.487 633.646 247.282 630.918 250.206C628.189 253.129 602.853 276.906 597.006 281.779C591.16 286.651 577.517 295.421 572.255 303.217C566.993 311.013 547.309 336.154 539.123 344.729C530.938 353.304 464.674 419.178 451.421 428.923C438.168 438.668 401.918 474.528 385.937 504.542C385.937 504.542 379.7 521.692 371.905 532.606C364.109 543.52 358.262 546.249 359.431 557.942C360.601 569.636 368.786 632.002 370.735 644.085C372.684 656.169 378.921 685.013 374.243 697.486C369.566 709.959 366.837 722.432 356.703 726.72C346.568 731.008 318.114 740.363 307.98 768.037C297.845 795.712 259.256 812.863 252.63 815.202C246.003 817.54 232.361 825.336 223.786 830.403C215.21 835.471 214.041 838.979 209.753 845.995C205.466 853.011 181.689 876.008 173.503 881.076L118.153 711.908H110.358L75.3306 648.175Z" fill="#F0E5D2" stroke="black" stroke-width="2.55187" stroke-dasharray="15.31 15.31"/>
<path d="M823.004 249.911H895.768" stroke="#0EB4E6" stroke-width="2.55187"/>
<path d="M823.004 622.551H895.768" stroke="#0EB4E6" stroke-width="2.55187"/>
<path d="M-51.2655 622.551H21.4984" stroke="#0EB4E6" stroke-width="2.55187"/>
<path d="M-51.2655 248.809H21.4984" stroke="#0EB4E6" stroke-width="2.55187"/>
<path d="M299.039 -51.3516V21.4124" stroke="#0EB4E6" stroke-width="2.55187"/>
<path d="M299.039 885.759V958.523" stroke="#0EB4E6" stroke-width="2.55187"/>
<path d="M620.964 885.759V958.523" stroke="#0EB4E6" stroke-width="2.55187"/>
<path d="M620.964 -49.1467V23.6172" stroke="#0EB4E6" stroke-width="2.55187"/>
<path d="M139.771 777.978L122.177 724.205C122.785 723.874 123.392 723.543 124 723.212C126.363 721.924 128.215 721.184 131.016 720.483C134.062 719.722 136.583 719.314 139.981 719.314C144.399 719.314 148.817 719.314 153.234 719.314C155.993 719.314 159.85 721.631 161.03 723.991C161.878 725.688 157.702 727.32 157.132 727.889C155.267 729.754 159.982 733.474 161.03 733.736C163.55 734.366 166.013 734.6 167.656 732.956C170.225 730.388 176.214 729.852 179.35 727.5C183.589 724.321 180.876 727.223 182.858 732.177C183.798 734.527 185.709 736.955 186.366 739.583C186.992 742.088 185.726 744.482 185.197 746.599C184.511 749.341 182.664 749.863 180.13 750.497C176.855 751.315 176.353 747.598 175.842 745.04C175.516 743.411 171.596 741.358 170.385 740.752C168.32 739.72 166.664 738.803 164.148 738.803C162.408 738.803 157.07 742.374 156.353 743.091C154.359 745.084 154.88 747.206 153.624 749.717C152.736 751.494 152.844 752.999 152.844 755.174C152.844 757.679 153.657 758.203 155.573 758.682C158.222 759.345 159.771 757.213 161.03 755.954C163.131 753.853 166.197 757.173 167.656 757.903C170.026 759.088 172.926 756.048 174.673 755.174C179.467 752.777 180.13 753.002 180.13 758.293C180.13 761.29 179.068 764.707 182.078 765.309C185.407 765.974 187.067 768.116 184.807 770.376C181.561 773.622 177.529 771.284 175.062 768.817C172.478 766.232 171.388 768.093 168.046 769.207C166.111 769.852 163.879 771.317 162.199 772.325C159.749 773.795 157.103 774.288 154.793 775.443C153.523 776.079 151.016 775.803 149.336 776.223C147.453 776.694 144.525 776.256 143.1 776.613C141.387 777.041 141.941 776.782 139.771 777.978Z" fill="#C3906F" stroke="#D38D5F" stroke-width="2.55187"/>
<path d="M220.667 576.652C218.838 577.109 213.415 579.506 210.143 580.16C206.823 580.824 204.686 581.323 204.686 584.838C204.686 587.684 206.583 589.853 208.194 591.464C208.654 591.923 209.234 592.244 209.753 592.633C211.661 594.064 214.131 593.893 215.6 595.362C217.129 596.891 212.092 598.656 212.092 600.819C212.092 602.435 214.475 604.59 214.821 606.666C214.904 607.169 212.769 610.976 212.482 612.123C211.64 615.491 212.926 618.024 214.821 619.918C216.5 621.598 221.464 621.088 223.786 621.088C226.813 621.088 229.992 621.478 233.141 621.478C236.401 621.478 237.13 622.831 238.598 625.765C239.906 628.382 244.203 629.537 246.783 630.053C250.915 630.879 251.304 628.104 254.969 628.104C258.408 628.104 260.807 628.303 263.544 626.935C267.191 625.111 267.149 622.406 268.611 618.749C269.64 616.176 265.389 613.509 264.323 611.733C262.519 608.725 262.375 605.586 262.375 601.988C262.375 599.273 263.102 596.713 260.815 596.141C258.089 595.46 255.354 595.344 254.579 592.244C253.846 589.313 254.103 586.052 253.409 583.278C252.665 580.299 252.321 579.031 249.901 577.821C246.866 576.304 245.67 573.478 243.665 570.805C241.862 568.401 242.384 566.587 238.987 565.738C235.894 564.965 233.188 564.611 229.243 565.738C226.653 566.478 225.016 569.514 223.786 571.975C222.723 574.099 221.663 574.164 220.667 576.652Z" fill="#C3906F" stroke="#D38D5F" stroke-width="2.55187"/>
<path d="M323.571 429.313C322.206 432.042 320.843 434.12 320.843 438.278C320.843 442.162 321.308 442.628 317.724 443.345C315.32 443.826 313.257 444.874 312.267 446.853C310.859 449.669 310.308 452.531 309.149 455.428C308.082 458.096 311.924 458.96 313.437 459.716C315.616 460.806 318.621 460.496 321.232 460.496C326.195 460.496 328.017 460.642 329.418 455.039C330.291 451.546 330.075 450.484 332.146 448.412C333.656 446.903 339.554 448.804 340.722 449.971C343.559 452.808 346.125 453.797 348.517 456.988C350.146 459.158 352.932 460.754 355.534 462.055C359.058 463.817 358.384 460.983 357.483 457.377C357.355 456.866 352.933 451.658 352.026 450.751C350.284 449.01 347.819 445.262 346.958 443.54C346.384 442.392 344.434 440.431 343.84 439.837C341.821 437.818 347.976 437.108 348.907 437.108C351.138 437.108 352.563 439.057 355.534 439.057C358.922 439.057 360.601 440.026 360.601 436.329C360.601 434.651 355.143 432.431 353.585 432.041C349.661 431.06 351.092 425.723 352.415 423.076C353.605 420.697 355.64 418.293 357.483 416.45C359.258 414.674 361.209 414.586 363.719 413.331C365.867 412.257 367.048 410.408 369.566 410.408C374.812 410.408 377.959 408.355 382.429 406.12C385.483 404.593 388.323 401.907 390.809 400.663C392.838 399.649 393.215 398.385 394.122 396.571C396.321 393.433 396.74 391.142 392.953 389.944C390.84 389.416 389.828 388.187 387.886 387.216C385.543 386.044 384.959 385.51 382.429 384.877C382.373 384.863 382.429 392.578 382.429 397.74C382.429 399.818 375.549 400.532 374.243 400.858C372.349 401.332 370.602 402.874 369.176 403.587C366.934 404.708 364.941 404.73 363.329 405.536C360.257 407.072 358.118 407.557 354.754 409.239C352.077 410.577 350.478 411.919 349.687 415.085C348.771 418.747 346.265 420.045 343.84 423.076C341.834 425.584 338.632 425.805 335.654 425.805C333.35 425.805 331.746 424.633 330.197 424.245C329.721 424.126 333.968 418.562 329.418 417.424C325.153 416.358 326.436 420.021 322.791 420.932C318.65 421.968 323.884 423.427 324.74 423.856C327.806 425.388 326.552 425.713 324.351 427.364C322.921 428.436 323.571 424.424 323.571 429.313Z" fill="#C3906F" stroke="#D38D5F" stroke-width="2.55187"/>
<path d="M471.589 213.384C482.748 198.13 506.855 165.548 511.193 160.042C513.334 157.325 518.125 150.911 524.475 142.114L544.508 162.096L551.105 155.499C551.105 155.499 578.483 185.516 586.399 167.374C587.059 167.594 587.719 167.814 588.378 168.034C590.555 168.759 591.682 168.794 593.491 169.518C596.182 170.594 594.537 174.404 594.316 175.29C593.881 177.028 592.681 177.33 593.326 179.908C593.721 181.49 596.988 182.555 598.274 182.877C598.714 182.987 599.153 183.097 599.593 183.207C603.325 184.14 604.211 182.968 604.211 186.835C604.211 190.556 602.082 190.194 598.933 191.453C597.207 192.144 593.777 192.113 592.996 192.113C592.959 192.113 594.583 195.657 595.47 199.205C595.58 199.644 595.69 200.084 595.8 200.524C596.382 202.852 594.975 205.208 594.975 207.616C594.975 210.098 592.569 212.001 591.017 213.553C589.446 215.124 586.757 215.851 585.08 216.522C582.879 217.402 582.173 219.366 581.121 221.469C580.14 223.433 581.47 227.775 582.111 229.056C582.457 229.748 586.32 230.521 587.059 230.705C590.419 231.546 591.589 229.693 592.666 234.004C593.547 237.529 593.501 237.892 590.027 239.281C589.607 239.45 589.148 239.501 588.708 239.611C586.365 240.197 584.118 240.676 581.781 241.261C580.041 241.696 578.092 241.59 576.174 241.59C572.284 241.59 573.319 243.103 576.504 243.899C578.964 244.515 580.157 246.297 582.441 246.868C584.525 247.389 586.594 248.42 589.038 247.198C590.755 246.339 590.897 243.479 591.677 241.92C592.824 239.626 596.295 242.139 596.295 243.899C596.295 247.272 594.345 248.895 591.677 250.496C589.518 251.791 588.669 252.883 587.718 254.784C586.894 256.433 585.99 257.911 585.08 259.732C584.337 261.217 584.487 263.093 584.09 264.68C583.702 266.232 581.213 266.375 583.76 267.649C585.879 268.708 586.356 268.809 585.739 271.277C585.136 273.691 581.699 272.91 580.132 272.596C578.013 272.173 577.932 271.387 576.174 272.267C574.588 273.059 577.158 275.319 573.535 276.225C571.12 276.828 570.257 275.4 567.762 275.4C565.598 275.4 562.65 276.52 562.65 278.864C562.65 281.63 563.693 281.87 561.99 284.141C560.522 286.098 559.079 287.324 558.032 289.419C557.098 291.287 555.309 292.24 553.414 293.377C550.14 295.342 551.225 291.34 550.775 289.089C550.353 286.98 551.268 285.794 552.095 284.141C552.626 283.079 556.211 283.165 557.042 281.502C557.211 281.165 553.401 276.643 552.754 275.565C551.203 272.98 549.999 273.779 549.126 270.288C548.607 268.212 548.428 265.417 549.456 263.361C550.658 260.956 551.105 258.12 551.105 256.104C551.105 254.394 542.339 260.205 541.704 261.052C540.56 262.577 539.753 264.323 538.736 265.34C537.412 266.663 536.884 268.841 535.437 270.288C533.807 271.917 532.673 274.041 530.819 275.895C528.714 278 529.974 278.854 527.356 277.544C524.835 276.284 523.551 273.894 522.408 271.607C521.409 269.609 519.728 267.897 518.78 265.999C517.924 264.289 516.926 263.612 516.141 262.041C515.401 260.562 519.046 260.424 520.429 259.732C523.269 258.312 522.738 256.043 522.738 252.146C522.738 249.94 522.905 247.538 522.408 245.549C522.075 244.218 520.729 243.18 520.099 241.92C519.007 239.737 515.291 238.571 513.832 239.941C511.822 241.828 508.772 241.948 506.245 242.58C504.051 243.129 502.768 242.745 499.978 242.745C497.18 242.745 490.82 237.484 488.598 235.818C488.205 235.523 487.719 235.378 487.279 235.158C485.284 234.161 485.135 231.755 485.135 229.716C485.135 225.241 484.298 221.254 480.187 218.171C477.693 216.301 475.854 215.517 472.93 214.543C472.37 214.356 472.036 213.77 471.589 213.384Z" fill="#C3906F" stroke="#D38D5F" stroke-width="2.55187"/>
<path d="M571.226 157.643C570.172 159.077 570.286 160.711 571.226 162.591C571.549 163.236 574.594 163.416 575.349 163.416C577.549 163.416 578.25 161.902 579.142 160.117C579.836 158.729 581.329 157.342 582.276 156.159C582.393 156.013 580.032 155.697 577.988 154.675C576.503 153.932 576.219 152.756 575.184 151.376C574.405 150.338 574.006 149.302 572.875 148.737C572.275 148.437 570.825 146.333 570.401 145.769C569.797 144.963 568.466 144.482 567.763 143.954C566.931 143.331 566.443 148.485 566.443 148.902C566.443 150.601 567.054 150.909 567.927 152.366C568.584 153.461 569.176 154.828 569.577 155.829C569.887 156.606 570.498 156.915 571.226 157.643Z" fill="#C3906F" stroke="#D38D5F" stroke-width="2.55187"/>
<path d="M182.562 908.763L182.974 908.789H-11.5497L-10.0052 713.696C-10.0052 713.696 17.9255 692.13 29.8321 684.715C46.3703 674.415 58.4085 664.712 62.295 661.02C64.4377 658.985 70.183 653.346 75.1681 648.338C80.1531 643.33 75.3306 648.175 75.3306 648.175L110.358 711.908H118.154L182.562 908.763Z" fill="#F1DAA6" stroke="black" stroke-width="2.55187"/>
<path d="M75.3306 648.175C79.32 644.165 82.7885 640.59 83.4768 639.644C85.0314 637.507 92.6102 633.814 94.7478 631.482C96.8854 629.15 113.403 614.576 117.29 609.329C121.176 604.082 133.613 590.673 138.86 585.621C144.107 580.568 155.573 571.046 159.07 566.188C162.568 561.33 174.034 551.808 177.532 547.921C181.03 544.035 203.96 519.938 209.207 513.331C214.454 506.724 235.83 486.125 238.551 482.044C241.271 477.963 255.069 463.777 263.23 458.142C271.392 452.506 297.432 426.077 301.513 421.219C305.594 416.361 334.16 382.742 339.99 374.969C345.82 367.196 371.277 336.492 382.548 322.112C393.819 307.732 430.741 260.704 438.514 254.291C446.288 247.878 460.279 229.029 467.275 219.312C474.271 209.596 506.141 166.455 511.193 160.042C516.246 153.629 536.067 126.618 556.277 96.3025C573.386 70.639 590.356 42.0509 599.287 27.5154" stroke="black" stroke-width="2.55187"/>
<path d="M184.399 796.004L171.879 861.316L179.375 862.751L191.895 797.439L184.399 796.004Z" fill="#919191"/>
<path d="M36.9631 105.788H301.387" stroke="black" stroke-width="2.56778"/>
<path d="M37.0233 99.1912V112.385" stroke="black" stroke-width="2.56778"/>
<path d="M118.18 99.1912V106.448" stroke="black" stroke-width="2.56778"/>
<path d="M166.607 105.458V112.385" stroke="black" stroke-width="2.56778"/>
<path d="M203.344 99.1912V106.118" stroke="black" stroke-width="2.56778"/>
<path d="M300.531 104.508V112.385" stroke="black" stroke-width="2.56778"/>
<path d="M36.3482 143.548C34.9829 143.548 33.8199 143.177 32.8594 142.434C31.8988 141.684 31.1648 140.6 30.6573 139.18C30.1498 137.755 29.8961 136.033 29.8961 134.015C29.8961 132.009 30.1498 130.296 30.6573 128.877C31.1708 127.451 31.9078 126.364 32.8684 125.614C33.835 124.859 34.995 124.482 36.3482 124.482C37.7015 124.482 38.8584 124.859 39.819 125.614C40.7856 126.364 41.5226 127.451 42.0301 128.877C42.5436 130.296 42.8004 132.009 42.8004 134.015C42.8004 136.033 42.5467 137.755 42.0392 139.18C41.5317 140.6 40.7977 141.684 39.8371 142.434C38.8765 143.177 37.7136 143.548 36.3482 143.548ZM36.3482 141.555C37.7015 141.555 38.7527 140.902 39.5018 139.597C40.2509 138.292 40.6255 136.431 40.6255 134.015C40.6255 132.408 40.4533 131.04 40.109 129.91C39.7707 128.78 39.2813 127.919 38.6409 127.327C38.0066 126.735 37.2424 126.439 36.3482 126.439C35.0071 126.439 33.9589 127.101 33.2037 128.424C32.4485 129.741 32.071 131.604 32.071 134.015C32.071 135.622 32.2401 136.987 32.5784 138.111C32.9168 139.235 33.4031 140.089 34.0374 140.676C34.6778 141.262 35.4481 141.555 36.3482 141.555Z" fill="black"/>
<path d="M159.121 139.518V137.67L167.277 124.765H168.618V127.629H167.712L161.549 137.38V137.525H172.533V139.518H159.121ZM167.857 143.324V138.956V138.095V124.765H169.995V143.324H167.857Z" fill="black"/>
<path d="M289.888 143.548C288.644 143.548 287.544 143.328 286.589 142.887C285.641 142.44 284.901 141.826 284.369 141.047C283.838 140.262 283.575 139.368 283.581 138.365C283.575 137.579 283.729 136.854 284.043 136.19C284.357 135.519 284.786 134.96 285.33 134.513C285.88 134.06 286.493 133.773 287.169 133.652V133.544C286.281 133.314 285.575 132.816 285.049 132.048C284.523 131.275 284.264 130.396 284.27 129.411C284.264 128.469 284.502 127.626 284.985 126.883C285.469 126.14 286.133 125.554 286.979 125.125C287.831 124.696 288.801 124.482 289.888 124.482C290.963 124.482 291.924 124.696 292.77 125.125C293.616 125.554 294.28 126.14 294.763 126.883C295.253 127.626 295.5 128.469 295.507 129.411C295.5 130.396 295.232 131.275 294.7 132.048C294.174 132.816 293.477 133.314 292.607 133.544V133.652C293.277 133.773 293.881 134.06 294.419 134.513C294.957 134.96 295.386 135.519 295.706 136.19C296.026 136.854 296.189 137.579 296.195 138.365C296.189 139.368 295.917 140.262 295.38 141.047C294.848 141.826 294.108 142.44 293.159 142.887C292.217 143.328 291.127 143.548 289.888 143.548ZM289.888 141.555C290.728 141.555 291.453 141.419 292.063 141.147C292.673 140.875 293.144 140.491 293.477 139.996C293.809 139.5 293.978 138.92 293.984 138.256C293.978 137.555 293.797 136.936 293.44 136.398C293.084 135.861 292.598 135.438 291.981 135.13C291.371 134.821 290.673 134.667 289.888 134.667C289.097 134.667 288.39 134.821 287.768 135.13C287.151 135.438 286.665 135.861 286.309 136.398C285.958 136.936 285.786 137.555 285.792 138.256C285.786 138.92 285.946 139.5 286.272 139.996C286.605 140.491 287.079 140.875 287.695 141.147C288.311 141.419 289.042 141.555 289.888 141.555ZM289.888 132.746C290.553 132.746 291.142 132.613 291.655 132.348C292.175 132.082 292.582 131.71 292.879 131.233C293.175 130.756 293.326 130.197 293.332 129.556C293.326 128.928 293.178 128.381 292.888 127.916C292.598 127.445 292.196 127.082 291.682 126.829C291.169 126.569 290.571 126.439 289.888 126.439C289.193 126.439 288.586 126.569 288.067 126.829C287.547 127.082 287.145 127.445 286.861 127.916C286.577 128.381 286.438 128.928 286.444 129.556C286.438 130.197 286.58 130.756 286.87 131.233C287.166 131.71 287.574 132.082 288.094 132.348C288.613 132.613 289.211 132.746 289.888 132.746ZM306.882 143.294V129.375H308.948V131.55H309.129C309.419 130.807 309.887 130.23 310.534 129.819C311.18 129.402 311.956 129.194 312.863 129.194C313.781 129.194 314.545 129.402 315.155 129.819C315.771 130.23 316.252 130.807 316.596 131.55H316.741C317.098 130.831 317.632 130.26 318.345 129.837C319.058 129.408 319.913 129.194 320.91 129.194C322.154 129.194 323.172 129.584 323.964 130.363C324.755 131.136 325.151 132.341 325.151 133.979V143.294H323.012V133.979C323.012 132.952 322.731 132.218 322.169 131.777C321.607 131.336 320.946 131.115 320.185 131.115C319.206 131.115 318.448 131.411 317.91 132.003C317.372 132.589 317.104 133.332 317.104 134.232V143.294H314.929V133.761C314.929 132.97 314.672 132.332 314.158 131.849C313.645 131.36 312.983 131.115 312.174 131.115C311.618 131.115 311.098 131.263 310.615 131.559C310.138 131.855 309.751 132.266 309.455 132.792C309.165 133.311 309.02 133.912 309.02 134.595V143.294H306.882ZM329.061 143.294V129.375H331.2V143.294H329.061ZM330.148 127.055C329.731 127.055 329.372 126.913 329.07 126.629C328.774 126.345 328.626 126.004 328.626 125.605C328.626 125.207 328.774 124.865 329.07 124.581C329.372 124.297 329.731 124.155 330.148 124.155C330.565 124.155 330.922 124.297 331.218 124.581C331.52 124.865 331.671 125.207 331.671 125.605C331.671 126.004 331.52 126.345 331.218 126.629C330.922 126.913 330.565 127.055 330.148 127.055Z" fill="black"/>
<path d="M36.3482 90.515C34.9829 90.515 33.8199 90.1434 32.8594 89.4003C31.8988 88.6512 31.1648 87.5668 30.6573 86.1471C30.1498 84.7213 29.8961 82.9995 29.8961 80.9817C29.8961 78.976 30.1498 77.2633 30.6573 75.8436C31.1708 74.4178 31.9078 73.3304 32.8684 72.5812C33.835 71.8261 34.995 71.4485 36.3482 71.4485C37.7015 71.4485 38.8584 71.8261 39.819 72.5812C40.7856 73.3304 41.5226 74.4178 42.0301 75.8436C42.5436 77.2633 42.8004 78.976 42.8004 80.9817C42.8004 82.9995 42.5467 84.7213 42.0392 86.1471C41.5317 87.5668 40.7977 88.6512 39.8371 89.4003C38.8765 90.1434 37.7136 90.515 36.3482 90.515ZM36.3482 88.5213C37.7015 88.5213 38.7527 87.8689 39.5018 86.5639C40.2509 85.259 40.6255 83.3983 40.6255 80.9817C40.6255 79.3747 40.4533 78.0064 40.109 76.8766C39.7707 75.7469 39.2813 74.886 38.6409 74.2939C38.0066 73.7019 37.2424 73.4059 36.3482 73.4059C35.0071 73.4059 33.9589 74.0674 33.2037 75.3905C32.4485 76.7075 32.071 78.5712 32.071 80.9817C32.071 82.5887 32.2401 83.9541 32.5784 85.0778C32.9168 86.2014 33.4031 87.0563 34.0374 87.6423C34.6778 88.2283 35.4481 88.5213 36.3482 88.5213Z" fill="black"/>
<path d="M110.507 86.485V84.6363L118.662 71.732H120.004V74.5956H119.097L112.935 84.3463V84.4913H123.918V86.485H110.507ZM119.242 90.291V85.9231V85.0622V71.732H121.381V90.291H119.242Z" fill="black"/>
<path d="M202.229 90.515C200.984 90.515 199.885 90.2945 198.93 89.8534C197.982 89.4064 197.242 88.7932 196.71 88.0138C196.178 87.2285 195.916 86.3344 195.922 85.3315C195.916 84.5461 196.07 83.8212 196.384 83.1566C196.698 82.486 197.127 81.9272 197.671 81.4801C198.22 81.027 198.834 80.7401 199.51 80.6192V80.5105C198.622 80.2809 197.915 79.7825 197.39 79.0153C196.864 78.242 196.604 77.363 196.61 76.3782C196.604 75.4358 196.843 74.593 197.326 73.8499C197.81 73.1068 198.474 72.5208 199.32 72.0919C200.172 71.6629 201.141 71.4485 202.229 71.4485C203.304 71.4485 204.265 71.6629 205.111 72.0919C205.956 72.5208 206.621 73.1068 207.104 73.8499C207.594 74.593 207.841 75.4358 207.847 76.3782C207.841 77.363 207.572 78.242 207.041 79.0153C206.515 79.7825 205.817 80.2809 204.947 80.5105V80.6192C205.618 80.7401 206.222 81.027 206.76 81.4801C207.298 81.9272 207.726 82.486 208.047 83.1566C208.367 83.8212 208.53 84.5461 208.536 85.3315C208.53 86.3344 208.258 87.2285 207.72 88.0138C207.189 88.7932 206.449 89.4064 205.5 89.8534C204.558 90.2945 203.467 90.515 202.229 90.515ZM202.229 88.5213C203.069 88.5213 203.794 88.3854 204.404 88.1135C205.014 87.8417 205.485 87.458 205.817 86.9627C206.15 86.4673 206.319 85.8873 206.325 85.2227C206.319 84.522 206.138 83.9027 205.781 83.365C205.425 82.8274 204.938 82.4045 204.322 82.0963C203.712 81.7882 203.014 81.6342 202.229 81.6342C201.437 81.6342 200.731 81.7882 200.108 82.0963C199.492 82.4045 199.006 82.8274 198.649 83.365C198.299 83.9027 198.127 84.522 198.133 85.2227C198.127 85.8873 198.287 86.4673 198.613 86.9627C198.945 87.458 199.42 87.8417 200.036 88.1135C200.652 88.3854 201.383 88.5213 202.229 88.5213ZM202.229 79.713C202.893 79.713 203.482 79.5801 203.996 79.3143C204.516 79.0485 204.923 78.6769 205.219 78.1997C205.515 77.7224 205.666 77.1636 205.672 76.5232C205.666 75.8949 205.518 75.3482 205.228 74.883C204.938 74.4118 204.537 74.0493 204.023 73.7955C203.51 73.5358 202.912 73.4059 202.229 73.4059C201.534 73.4059 200.927 73.5358 200.407 73.7955C199.888 74.0493 199.486 74.4118 199.202 74.883C198.918 75.3482 198.779 75.8949 198.785 76.5232C198.779 77.1636 198.921 77.7224 199.211 78.1997C199.507 78.6769 199.915 79.0485 200.435 79.3143C200.954 79.5801 201.552 79.713 202.229 79.713ZM221.216 85.1865L221.18 82.5404H221.615L227.704 76.342H230.351L223.862 82.9029H223.681L221.216 85.1865ZM219.222 90.2612V71.7022H221.361V90.2612H219.222ZM228.067 90.2612L222.63 83.3741L224.152 81.8879L230.786 90.2612H228.067ZM233.103 90.2612V76.342H235.169V78.5169H235.351C235.641 77.7738 236.109 77.1968 236.755 76.786C237.402 76.3692 238.178 76.1607 239.084 76.1607C240.002 76.1607 240.767 76.3692 241.377 76.786C241.993 77.1968 242.473 77.7738 242.818 78.5169H242.963C243.319 77.7979 243.854 77.227 244.567 76.8041C245.28 76.3752 246.134 76.1607 247.131 76.1607C248.376 76.1607 249.394 76.5504 250.185 77.3297C250.977 78.103 251.372 79.3083 251.372 80.9455V90.2612H249.234V80.9455C249.234 79.9184 248.953 79.1844 248.391 78.7434C247.829 78.3024 247.167 78.0819 246.406 78.0819C245.428 78.0819 244.669 78.3779 244.132 78.97C243.594 79.556 243.325 80.299 243.325 81.1992V90.2612H241.15V80.728C241.15 79.9366 240.893 79.2992 240.38 78.8159C239.866 78.3265 239.205 78.0819 238.395 78.0819C237.84 78.0819 237.32 78.2299 236.837 78.5259C236.359 78.8219 235.973 79.2328 235.677 79.7583C235.387 80.2779 235.242 80.879 235.242 81.5617V90.2612H233.103Z" fill="black"/>
<path d="M266.879 31.2584C266.457 31.2584 266.081 31.186 265.751 31.0411C265.423 30.8962 265.162 30.6949 264.968 30.4371C264.776 30.1771 264.672 29.8756 264.655 29.5326H265.46C265.477 29.7435 265.549 29.9257 265.677 30.0791C265.805 30.2304 265.972 30.3476 266.179 30.4307C266.386 30.5138 266.615 30.5553 266.866 30.5553C267.147 30.5553 267.397 30.5063 267.614 30.4083C267.831 30.3103 268.002 30.1739 268.125 29.9992C268.249 29.8245 268.311 29.6221 268.311 29.392C268.311 29.1512 268.251 28.9392 268.132 28.7559C268.012 28.5706 267.838 28.4257 267.608 28.3213C267.378 28.2169 267.096 28.1647 266.764 28.1647H266.24V27.4616H266.764C267.024 27.4616 267.252 27.4147 267.448 27.3209C267.646 27.2272 267.8 27.0951 267.911 26.9246C268.024 26.7542 268.081 26.5539 268.081 26.3238C268.081 26.1022 268.032 25.9094 267.934 25.7453C267.836 25.5812 267.697 25.4534 267.518 25.3618C267.341 25.2702 267.133 25.2243 266.892 25.2243C266.666 25.2243 266.453 25.2659 266.253 25.349C266.054 25.43 265.892 25.5482 265.767 25.7037C265.641 25.8572 265.573 26.0425 265.562 26.2599H264.795C264.808 25.9168 264.911 25.6164 265.105 25.3586C265.299 25.0986 265.553 24.8962 265.866 24.7513C266.181 24.6064 266.527 24.534 266.905 24.534C267.309 24.534 267.657 24.616 267.946 24.7801C268.236 24.942 268.459 25.1562 268.614 25.4225C268.77 25.6888 268.848 25.9765 268.848 26.2854C268.848 26.654 268.751 26.9683 268.557 27.2282C268.365 27.4882 268.104 27.6682 267.774 27.7684V27.8195C268.187 27.8877 268.51 28.0635 268.742 28.3469C268.974 28.6281 269.091 28.9765 269.091 29.392C269.091 29.7478 268.994 30.0674 268.8 30.3508C268.608 30.632 268.346 30.8536 268.014 31.0155C267.681 31.1775 267.303 31.2584 266.879 31.2584ZM270.244 29.8266V29.1746L273.121 24.6235H273.594V25.6334H273.274L271.101 29.0724V29.1235H274.974V29.8266H270.244ZM273.325 31.1689V29.6285V29.3248V24.6235H274.08V31.1689H273.325ZM278.703 31.1689V30.5937L280.864 28.2286C281.117 27.9516 281.326 27.7108 281.49 27.5063C281.654 27.2996 281.776 27.1057 281.855 26.9246C281.936 26.7414 281.976 26.5496 281.976 26.3493C281.976 26.1192 281.921 25.92 281.81 25.7517C281.701 25.5834 281.552 25.4534 281.363 25.3618C281.173 25.2702 280.96 25.2243 280.723 25.2243C280.472 25.2243 280.252 25.2765 280.065 25.3809C279.88 25.4832 279.736 25.627 279.633 25.8124C279.533 25.9978 279.483 26.2151 279.483 26.4644H278.729C278.729 26.0809 278.817 25.7442 278.994 25.4545C279.171 25.1647 279.412 24.9388 279.717 24.7769C280.023 24.615 280.367 24.534 280.749 24.534C281.132 24.534 281.472 24.615 281.768 24.7769C282.065 24.9388 282.297 25.1572 282.465 25.4321C282.633 25.7069 282.718 26.0127 282.718 26.3493C282.718 26.5901 282.674 26.8256 282.587 27.0557C282.501 27.2836 282.352 27.5383 282.139 27.8195C281.928 28.0986 281.635 28.4395 281.26 28.8422L279.79 30.4147V30.4658H282.833V31.1689H278.703ZM286.288 31.2584C285.806 31.2584 285.396 31.1274 285.057 30.8653C284.718 30.6011 284.459 30.2187 284.28 29.718C284.102 29.2151 284.012 28.6079 284.012 27.8962C284.012 27.1888 284.102 26.5848 284.28 26.0841C284.462 25.5812 284.722 25.1977 285.06 24.9335C285.401 24.6672 285.81 24.534 286.288 24.534C286.765 24.534 287.173 24.6672 287.512 24.9335C287.853 25.1977 288.113 25.5812 288.292 26.0841C288.473 26.5848 288.563 27.1888 288.563 27.8962C288.563 28.6079 288.474 29.2151 288.295 29.718C288.116 30.2187 287.857 30.6011 287.518 30.8653C287.179 31.1274 286.769 31.2584 286.288 31.2584ZM286.288 30.5553C286.765 30.5553 287.136 30.3252 287.4 29.865C287.664 29.4047 287.796 28.7485 287.796 27.8962C287.796 27.3295 287.735 26.8469 287.614 26.4484C287.495 26.05 287.322 25.7464 287.096 25.5376C286.872 25.3287 286.603 25.2243 286.288 25.2243C285.815 25.2243 285.445 25.4577 285.179 25.9243C284.912 26.3888 284.779 27.0461 284.779 27.8962C284.779 28.463 284.839 28.9445 284.958 29.3408C285.077 29.7371 285.249 30.0386 285.473 30.2453C285.698 30.452 285.97 30.5553 286.288 30.5553ZM290.442 24.6235V26.8735H289.739V24.6235H290.442Z" fill="#0EB4E6"/>
<path d="M293.073 26.2844C292.827 26.2844 292.611 26.2258 292.425 26.1086C292.24 25.9914 292.096 25.8274 291.992 25.6167C291.889 25.406 291.837 25.1598 291.837 24.8781C291.837 24.594 291.889 24.346 291.992 24.1341C292.096 23.9223 292.24 23.7577 292.425 23.6405C292.611 23.5233 292.827 23.4648 293.073 23.4648C293.319 23.4648 293.535 23.5233 293.719 23.6405C293.905 23.7577 294.05 23.9223 294.153 24.1341C294.257 24.346 294.309 24.594 294.309 24.8781C294.309 25.1598 294.257 25.406 294.153 25.6167C294.05 25.8274 293.905 25.9914 293.719 26.1086C293.535 26.2258 293.319 26.2844 293.073 26.2844ZM293.073 25.9079C293.26 25.9079 293.414 25.86 293.535 25.7641C293.655 25.6682 293.745 25.5422 293.803 25.3859C293.861 25.2297 293.89 25.0604 293.89 24.8781C293.89 24.6958 293.861 24.526 293.803 24.3685C293.745 24.2111 293.655 24.0838 293.535 23.9868C293.414 23.8897 293.26 23.8412 293.073 23.8412C292.886 23.8412 292.732 23.8897 292.611 23.9868C292.491 24.0838 292.401 24.2111 292.343 24.3685C292.285 24.526 292.256 24.6958 292.256 24.8781C292.256 25.0604 292.285 25.2297 292.343 25.3859C292.401 25.5422 292.491 25.6682 292.611 25.7641C292.732 25.86 292.886 25.9079 293.073 25.9079Z" fill="#0EB4E6"/>
<path d="M591.035 31.6464C590.613 31.6464 590.237 31.5739 589.907 31.429C589.578 31.2842 589.317 31.0828 589.123 30.825C588.932 30.5651 588.827 30.2636 588.81 29.9205H589.616C589.633 30.1315 589.705 30.3136 589.833 30.467C589.961 30.6183 590.128 30.7355 590.335 30.8186C590.541 30.9017 590.771 30.9432 591.022 30.9432C591.303 30.9432 591.552 30.8942 591.77 30.7962C591.987 30.6982 592.158 30.5619 592.281 30.3871C592.405 30.2124 592.467 30.01 592.467 29.7799C592.467 29.5391 592.407 29.3271 592.288 29.1439C592.168 28.9585 591.994 28.8136 591.763 28.7092C591.533 28.6048 591.252 28.5526 590.92 28.5526H590.396V27.8495H590.92C591.18 27.8495 591.408 27.8026 591.604 27.7089C591.802 27.6151 591.956 27.483 592.067 27.3126C592.18 27.1421 592.236 26.9418 592.236 26.7117C592.236 26.4901 592.187 26.2973 592.089 26.1332C591.991 25.9692 591.853 25.8413 591.674 25.7497C591.497 25.6581 591.288 25.6123 591.047 25.6123C590.822 25.6123 590.609 25.6538 590.408 25.7369C590.21 25.8179 590.048 25.9361 589.922 26.0917C589.797 26.2451 589.729 26.4305 589.718 26.6478H588.951C588.964 26.3048 589.067 26.0043 589.261 25.7465C589.455 25.4866 589.708 25.2842 590.022 25.1393C590.337 24.9944 590.683 24.9219 591.06 24.9219C591.465 24.9219 591.812 25.004 592.102 25.168C592.392 25.33 592.615 25.5441 592.77 25.8104C592.926 26.0768 593.003 26.3644 593.003 26.6734C593.003 27.042 592.907 27.3562 592.713 27.6162C592.521 27.8761 592.26 28.0562 591.93 28.1563V28.2075C592.343 28.2756 592.666 28.4514 592.898 28.7348C593.13 29.016 593.246 29.3644 593.246 29.7799C593.246 30.1357 593.149 30.4553 592.956 30.7387C592.764 31.02 592.502 31.2415 592.169 31.4035C591.837 31.5654 591.459 31.6464 591.035 31.6464ZM594.4 30.2146V29.5626L597.277 25.0114H597.75V26.0214H597.43L595.257 29.4603V29.5114H599.13V30.2146H594.4ZM597.481 31.5569V30.0164V29.7128V25.0114H598.235V31.5569H597.481ZM605.071 31.6464C604.649 31.6464 604.273 31.5739 603.943 31.429C603.615 31.2842 603.354 31.0828 603.16 30.825C602.968 30.5651 602.863 30.2636 602.846 29.9205H603.652C603.669 30.1315 603.741 30.3136 603.869 30.467C603.997 30.6183 604.164 30.7355 604.371 30.8186C604.578 30.9017 604.807 30.9432 605.058 30.9432C605.339 30.9432 605.589 30.8942 605.806 30.7962C606.023 30.6982 606.194 30.5619 606.317 30.3871C606.441 30.2124 606.503 30.01 606.503 29.7799C606.503 29.5391 606.443 29.3271 606.324 29.1439C606.204 28.9585 606.03 28.8136 605.8 28.7092C605.569 28.6048 605.288 28.5526 604.956 28.5526H604.432V27.8495H604.956C605.216 27.8495 605.444 27.8026 605.64 27.7089C605.838 27.6151 605.992 27.483 606.103 27.3126C606.216 27.1421 606.273 26.9418 606.273 26.7117C606.273 26.4901 606.224 26.2973 606.126 26.1332C606.028 25.9692 605.889 25.8413 605.71 25.7497C605.533 25.6581 605.324 25.6123 605.084 25.6123C604.858 25.6123 604.645 25.6538 604.444 25.7369C604.246 25.8179 604.084 25.9361 603.959 26.0917C603.833 26.2451 603.765 26.4305 603.754 26.6478H602.987C603 26.3048 603.103 26.0043 603.297 25.7465C603.491 25.4866 603.744 25.2842 604.058 25.1393C604.373 24.9944 604.719 24.9219 605.096 24.9219C605.501 24.9219 605.849 25.004 606.138 25.168C606.428 25.33 606.651 25.5441 606.806 25.8104C606.962 26.0768 607.04 26.3644 607.04 26.6734C607.04 27.042 606.943 27.3562 606.749 27.6162C606.557 27.8761 606.296 28.0562 605.966 28.1563V28.2075C606.379 28.2756 606.702 28.4514 606.934 28.7348C607.166 29.016 607.282 29.3644 607.282 29.7799C607.282 30.1357 607.186 30.4553 606.992 30.7387C606.8 31.02 606.538 31.2415 606.205 31.4035C605.873 31.5654 605.495 31.6464 605.071 31.6464ZM610.725 31.6464C610.243 31.6464 609.833 31.5153 609.494 31.2533C609.155 30.9891 608.896 30.6066 608.718 30.1059C608.539 29.603 608.449 28.9958 608.449 28.2842C608.449 27.5768 608.539 26.9727 608.718 26.472C608.899 25.9692 609.159 25.5856 609.497 25.3214C609.838 25.0551 610.247 24.9219 610.725 24.9219C611.202 24.9219 611.61 25.0551 611.949 25.3214C612.29 25.5856 612.55 25.9692 612.729 26.472C612.91 26.9727 613 27.5768 613 28.2842C613 28.9958 612.911 29.603 612.732 30.1059C612.553 30.6066 612.294 30.9891 611.955 31.2533C611.616 31.5153 611.206 31.6464 610.725 31.6464ZM610.725 30.9432C611.202 30.9432 611.573 30.7131 611.837 30.2529C612.101 29.7927 612.233 29.1364 612.233 28.2842C612.233 27.7174 612.172 27.2348 612.051 26.8364C611.932 26.4379 611.759 26.1343 611.533 25.9255C611.309 25.7167 611.04 25.6123 610.725 25.6123C610.252 25.6123 609.882 25.8456 609.616 26.3122C609.349 26.7767 609.216 27.434 609.216 28.2842C609.216 28.8509 609.276 29.3325 609.395 29.7288C609.514 30.1251 609.686 30.4266 609.91 30.6332C610.135 30.8399 610.407 30.9432 610.725 30.9432ZM614.879 25.0114V27.2614H614.176V25.0114H614.879Z" fill="#0EB4E6"/>
<path d="M617.9 25.8964C617.654 25.8964 617.438 25.8378 617.252 25.7206C617.067 25.6034 616.923 25.4395 616.819 25.2288C616.716 25.0181 616.664 24.7719 616.664 24.4902C616.664 24.2061 616.716 23.9581 616.819 23.7462C616.923 23.5343 617.067 23.3698 617.252 23.2526C617.438 23.1354 617.654 23.0768 617.9 23.0768C618.146 23.0768 618.362 23.1354 618.546 23.2526C618.732 23.3698 618.877 23.5343 618.98 23.7462C619.084 23.9581 619.136 24.2061 619.136 24.4902C619.136 24.7719 619.084 25.0181 618.98 25.2288C618.877 25.4395 618.732 25.6034 618.546 25.7206C618.362 25.8378 618.146 25.8964 617.9 25.8964ZM617.9 25.52C618.087 25.52 618.241 25.4721 618.362 25.3762C618.483 25.2803 618.572 25.1542 618.63 24.998C618.688 24.8417 618.717 24.6725 618.717 24.4902C618.717 24.3079 618.688 24.138 618.63 23.9806C618.572 23.8231 618.483 23.6959 618.362 23.5988C618.241 23.5018 618.087 23.4532 617.9 23.4532C617.713 23.4532 617.559 23.5018 617.439 23.5988C617.318 23.6959 617.228 23.8231 617.17 23.9806C617.112 24.138 617.083 24.3079 617.083 24.4902C617.083 24.6725 617.112 24.8417 617.17 24.998C617.228 25.1542 617.318 25.2803 617.439 25.3762C617.559 25.4721 617.713 25.52 617.9 25.52Z" fill="#0EB4E6"/>
<path d="M27.8091 242.745C27.3873 242.745 27.0112 242.672 26.6809 242.527C26.3528 242.383 26.0918 242.181 25.8979 241.923C25.7061 241.663 25.6017 241.362 25.5847 241.019H26.3901C26.4071 241.23 26.4796 241.412 26.6074 241.565C26.7353 241.717 26.9025 241.834 27.1092 241.917C27.3159 242 27.5449 242.042 27.7963 242.042C28.0776 242.042 28.3269 241.993 28.5442 241.895C28.7615 241.797 28.932 241.66 29.0556 241.486C29.1792 241.311 29.2409 241.108 29.2409 240.878C29.2409 240.638 29.1813 240.426 29.062 240.242C28.9426 240.057 28.7679 239.912 28.5378 239.808C28.3077 239.703 28.0265 239.651 27.6941 239.651H27.1699V238.948H27.6941C27.954 238.948 28.182 238.901 28.378 238.807C28.5762 238.714 28.7306 238.581 28.8414 238.411C28.9544 238.241 29.0108 238.04 29.0108 237.81C29.0108 237.589 28.9618 237.396 28.8638 237.232C28.7658 237.068 28.6273 236.94 28.4483 236.848C28.2715 236.756 28.0627 236.711 27.8219 236.711C27.5961 236.711 27.383 236.752 27.1827 236.835C26.9846 236.916 26.8226 237.035 26.6969 237.19C26.5712 237.343 26.503 237.529 26.4924 237.746H25.7253C25.7381 237.403 25.8414 237.103 26.0353 236.845C26.2292 236.585 26.4828 236.383 26.796 236.238C27.1113 236.093 27.4576 236.02 27.8347 236.02C28.2395 236.02 28.5868 236.102 28.8766 236.266C29.1664 236.428 29.389 236.642 29.5446 236.909C29.7001 237.175 29.7779 237.463 29.7779 237.772C29.7779 238.14 29.6809 238.455 29.487 238.715C29.2953 238.975 29.0343 239.155 28.704 239.255V239.306C29.1174 239.374 29.4402 239.55 29.6724 239.833C29.9047 240.114 30.0208 240.463 30.0208 240.878C30.0208 241.234 29.9238 241.554 29.7299 241.837C29.5382 242.118 29.2761 242.34 28.9437 242.502C28.6113 242.664 28.2331 242.745 27.8091 242.745ZM33.6291 236.11V242.655H32.8365V236.941H32.7981L31.2001 238.002V237.196L32.8365 236.11H33.6291ZM40.2544 242.745C39.8326 242.745 39.4565 242.672 39.1262 242.527C38.7981 242.383 38.5371 242.181 38.3432 241.923C38.1515 241.663 38.0471 241.362 38.03 241.019H38.8354C38.8525 241.23 38.9249 241.412 39.0527 241.565C39.1806 241.717 39.3478 241.834 39.5545 241.917C39.7612 242 39.9902 242.042 40.2417 242.042C40.5229 242.042 40.7722 241.993 40.9895 241.895C41.2069 241.797 41.3773 241.66 41.5009 241.486C41.6245 241.311 41.6863 241.108 41.6863 240.878C41.6863 240.638 41.6266 240.426 41.5073 240.242C41.388 240.057 41.2132 239.912 40.9831 239.808C40.753 239.703 40.4718 239.651 40.1394 239.651H39.6152V238.948H40.1394C40.3993 238.948 40.6273 238.901 40.8233 238.807C41.0215 238.714 41.176 238.581 41.2868 238.411C41.3997 238.241 41.4561 238.04 41.4561 237.81C41.4561 237.589 41.4071 237.396 41.3091 237.232C41.2111 237.068 41.0726 236.94 40.8936 236.848C40.7168 236.756 40.508 236.711 40.2672 236.711C40.0414 236.711 39.8283 236.752 39.628 236.835C39.4299 236.916 39.2679 237.035 39.1422 237.19C39.0165 237.343 38.9483 237.529 38.9377 237.746H38.1706C38.1834 237.403 38.2868 237.103 38.4806 236.845C38.6745 236.585 38.9281 236.383 39.2413 236.238C39.5566 236.093 39.9029 236.02 40.28 236.02C40.6848 236.02 41.0321 236.102 41.3219 236.266C41.6117 236.428 41.8343 236.642 41.9899 236.909C42.1454 237.175 42.2232 237.463 42.2232 237.772C42.2232 238.14 42.1262 238.455 41.9324 238.715C41.7406 238.975 41.4796 239.155 41.1493 239.255V239.306C41.5627 239.374 41.8855 239.55 42.1177 239.833C42.35 240.114 42.4661 240.463 42.4661 240.878C42.4661 241.234 42.3691 241.554 42.1752 241.837C41.9835 242.118 41.7214 242.34 41.389 242.502C41.0566 242.664 40.6784 242.745 40.2544 242.745ZM45.9082 242.745C45.4267 242.745 45.0165 242.614 44.6777 242.352C44.339 242.087 44.0801 241.705 43.9011 241.204C43.7221 240.701 43.6326 240.094 43.6326 239.383C43.6326 238.675 43.7221 238.071 43.9011 237.57C44.0822 237.068 44.3422 236.684 44.6809 236.42C45.0218 236.153 45.4309 236.02 45.9082 236.02C46.3855 236.02 46.7935 236.153 47.1323 236.42C47.4732 236.684 47.7331 237.068 47.9121 237.57C48.0932 238.071 48.1838 238.675 48.1838 239.383C48.1838 240.094 48.0943 240.701 47.9153 241.204C47.7363 241.705 47.4775 242.087 47.1387 242.352C46.7999 242.614 46.3897 242.745 45.9082 242.745ZM45.9082 242.042C46.3855 242.042 46.7562 241.812 47.0204 241.351C47.2846 240.891 47.4167 240.235 47.4167 239.383C47.4167 238.816 47.356 238.333 47.2346 237.935C47.1152 237.536 46.9426 237.233 46.7168 237.024C46.4931 236.815 46.2235 236.711 45.9082 236.711C45.4352 236.711 45.0655 236.944 44.7992 237.411C44.5328 237.875 44.3997 238.532 44.3997 239.383C44.3997 239.949 44.4593 240.431 44.5787 240.827C44.698 241.223 44.8695 241.525 45.0932 241.732C45.3191 241.938 45.5907 242.042 45.9082 242.042ZM50.063 236.11V238.36H49.3599V236.11H50.063Z" fill="#0EB4E6"/>
<path d="M53.0335 236.288C52.7873 236.288 52.5712 236.23 52.3854 236.112C52.2007 235.995 52.0563 235.831 51.9521 235.621C51.8492 235.41 51.7977 235.164 51.7977 234.882C51.7977 234.598 51.8492 234.35 51.9521 234.138C52.0563 233.926 52.2007 233.762 52.3854 233.644C52.5712 233.527 52.7873 233.469 53.0335 233.469C53.2797 233.469 53.4951 233.527 53.6798 233.644C53.8656 233.762 54.01 233.926 54.113 234.138C54.2172 234.35 54.2693 234.598 54.2693 234.882C54.2693 235.164 54.2172 235.41 54.113 235.621C54.01 235.831 53.8656 235.995 53.6798 236.112C53.4951 236.23 53.2797 236.288 53.0335 236.288ZM53.0335 235.912C53.2205 235.912 53.3744 235.864 53.4951 235.768C53.6159 235.672 53.7052 235.546 53.7632 235.39C53.8212 235.234 53.8502 235.064 53.8502 234.882C53.8502 234.7 53.8212 234.53 53.7632 234.372C53.7052 234.215 53.6159 234.088 53.4951 233.991C53.3744 233.894 53.2205 233.845 53.0335 233.845C52.8464 233.845 52.6926 233.894 52.5718 233.991C52.4511 234.088 52.3617 234.215 52.3037 234.372C52.2457 234.53 52.2167 234.7 52.2167 234.882C52.2167 235.064 52.2457 235.234 52.3037 235.39C52.3617 235.546 52.4511 235.672 52.5718 235.768C52.6926 235.864 52.8464 235.912 53.0335 235.912Z" fill="#0EB4E6"/>
<path d="M27.8091 614.523C27.3873 614.523 27.0112 614.451 26.6809 614.306C26.3528 614.161 26.0918 613.96 25.8979 613.702C25.7061 613.442 25.6017 613.14 25.5847 612.797H26.3901C26.4071 613.008 26.4796 613.19 26.6074 613.344C26.7353 613.495 26.9025 613.612 27.1092 613.695C27.3159 613.778 27.5449 613.82 27.7963 613.82C28.0776 613.82 28.3269 613.771 28.5442 613.673C28.7615 613.575 28.932 613.439 29.0556 613.264C29.1792 613.089 29.2409 612.887 29.2409 612.657C29.2409 612.416 29.1813 612.204 29.062 612.021C28.9426 611.835 28.7679 611.69 28.5378 611.586C28.3077 611.482 28.0265 611.429 27.6941 611.429H27.1699V610.726H27.6941C27.954 610.726 28.182 610.679 28.378 610.586C28.5762 610.492 28.7306 610.36 28.8414 610.189C28.9544 610.019 29.0108 609.819 29.0108 609.588C29.0108 609.367 28.9618 609.174 28.8638 609.01C28.7658 608.846 28.6273 608.718 28.4483 608.626C28.2715 608.535 28.0627 608.489 27.8219 608.489C27.5961 608.489 27.383 608.531 27.1827 608.614C26.9846 608.695 26.8226 608.813 26.6969 608.968C26.5712 609.122 26.503 609.307 26.4924 609.525H25.7253C25.7381 609.181 25.8414 608.881 26.0353 608.623C26.2292 608.363 26.4828 608.161 26.796 608.016C27.1113 607.871 27.4576 607.799 27.8347 607.799C28.2395 607.799 28.5868 607.881 28.8766 608.045C29.1664 608.207 29.389 608.421 29.5446 608.687C29.7001 608.953 29.7779 609.241 29.7779 609.55C29.7779 609.919 29.6809 610.233 29.487 610.493C29.2953 610.753 29.0343 610.933 28.704 611.033V611.084C29.1174 611.152 29.4402 611.328 29.6724 611.612C29.9047 611.893 30.0208 612.241 30.0208 612.657C30.0208 613.012 29.9238 613.332 29.7299 613.615C29.5382 613.897 29.2761 614.118 28.9437 614.28C28.6113 614.442 28.2331 614.523 27.8091 614.523ZM33.6291 607.888V614.434H32.8365V608.719H32.7981L31.2001 609.78V608.975L32.8365 607.888H33.6291ZM38.0428 614.434V613.858L40.2033 611.493C40.4569 611.216 40.6657 610.975 40.8297 610.771C40.9938 610.564 41.1152 610.37 41.1941 610.189C41.275 610.006 41.3155 609.814 41.3155 609.614C41.3155 609.384 41.2601 609.185 41.1493 609.016C41.0407 608.848 40.8915 608.718 40.7019 608.626C40.5123 608.535 40.2992 608.489 40.0627 608.489C39.8113 608.489 39.5918 608.541 39.4043 608.646C39.2189 608.748 39.0751 608.892 38.9728 609.077C38.8727 609.262 38.8226 609.48 38.8226 609.729H38.0684C38.0684 609.346 38.1568 609.009 38.3336 608.719C38.5105 608.429 38.7512 608.203 39.0559 608.042C39.3627 607.88 39.7069 607.799 40.0882 607.799C40.4718 607.799 40.8116 607.88 41.1078 608.042C41.4039 608.203 41.6362 608.422 41.8045 608.697C41.9728 608.972 42.057 609.277 42.057 609.614C42.057 609.855 42.0133 610.09 41.926 610.32C41.8407 610.548 41.6916 610.803 41.4785 611.084C41.2676 611.363 40.9746 611.704 40.5996 612.107L39.1294 613.679V613.73H42.1721V614.434H38.0428ZM45.627 614.523C45.1454 614.523 44.7353 614.392 44.3965 614.13C44.0577 613.866 43.7988 613.483 43.6199 612.983C43.4409 612.48 43.3514 611.873 43.3514 611.161C43.3514 610.453 43.4409 609.849 43.6199 609.349C43.801 608.846 44.0609 608.462 44.3997 608.198C44.7406 607.932 45.1497 607.799 45.627 607.799C46.1042 607.799 46.5123 607.932 46.851 608.198C47.1919 608.462 47.4519 608.846 47.6309 609.349C47.812 609.849 47.9025 610.453 47.9025 611.161C47.9025 611.873 47.813 612.48 47.6341 612.983C47.4551 613.483 47.1962 613.866 46.8574 614.13C46.5186 614.392 46.1085 614.523 45.627 614.523ZM45.627 613.82C46.1042 613.82 46.475 613.59 46.7392 613.13C47.0034 612.669 47.1355 612.013 47.1355 611.161C47.1355 610.594 47.0748 610.112 46.9533 609.713C46.834 609.315 46.6614 609.011 46.4355 608.802C46.2118 608.593 45.9423 608.489 45.627 608.489C45.1539 608.489 44.7843 608.722 44.5179 609.189C44.2516 609.653 44.1184 610.311 44.1184 611.161C44.1184 611.728 44.1781 612.209 44.2974 612.605C44.4167 613.002 44.5882 613.303 44.812 613.51C45.0378 613.717 45.3095 613.82 45.627 613.82ZM49.7818 607.888V610.138H49.0787V607.888H49.7818Z" fill="#0EB4E6"/>
<path d="M52.6702 606.211C52.424 606.211 52.2079 606.153 52.0221 606.036C51.8374 605.918 51.693 605.754 51.5889 605.544C51.4859 605.333 51.4344 605.087 51.4344 604.805C51.4344 604.521 51.4859 604.273 51.5889 604.061C51.693 603.849 51.8374 603.685 52.0221 603.568C52.2079 603.45 52.424 603.392 52.6702 603.392C52.9164 603.392 53.1318 603.45 53.3165 603.568C53.5023 603.685 53.6468 603.849 53.7497 604.061C53.8539 604.273 53.906 604.521 53.906 604.805C53.906 605.087 53.8539 605.333 53.7497 605.544C53.6468 605.754 53.5023 605.918 53.3165 606.036C53.1318 606.153 52.9164 606.211 52.6702 606.211ZM52.6702 605.835C52.8572 605.835 53.0111 605.787 53.1318 605.691C53.2526 605.595 53.3419 605.469 53.3999 605.313C53.4579 605.157 53.4869 604.987 53.4869 604.805C53.4869 604.623 53.4579 604.453 53.3999 604.296C53.3419 604.138 53.2526 604.011 53.1318 603.914C53.0111 603.817 52.8572 603.768 52.6702 603.768C52.4832 603.768 52.3293 603.817 52.2085 603.914C52.0878 604.011 51.9984 604.138 51.9404 604.296C51.8824 604.453 51.8534 604.623 51.8534 604.805C51.8534 604.987 51.8824 605.157 51.9404 605.313C51.9984 605.469 52.0878 605.595 52.2085 605.691C52.3293 605.787 52.4832 605.835 52.6702 605.835Z" fill="#0EB4E6"/>
<path d="M753.69 242.745C753.269 242.745 752.893 242.672 752.562 242.527C752.234 242.383 751.973 242.181 751.779 241.923C751.587 241.663 751.483 241.362 751.466 241.019H752.271C752.288 241.23 752.361 241.412 752.489 241.565C752.617 241.717 752.784 241.834 752.991 241.917C753.197 242 753.426 242.042 753.678 242.042C753.959 242.042 754.208 241.993 754.426 241.895C754.643 241.797 754.813 241.66 754.937 241.486C755.061 241.311 755.122 241.108 755.122 240.878C755.122 240.638 755.063 240.426 754.943 240.242C754.824 240.057 754.649 239.912 754.419 239.808C754.189 239.703 753.908 239.651 753.575 239.651H753.051V238.948H753.575C753.835 238.948 754.063 238.901 754.259 238.807C754.458 238.714 754.612 238.581 754.723 238.411C754.836 238.241 754.892 238.04 754.892 237.81C754.892 237.589 754.843 237.396 754.745 237.232C754.647 237.068 754.509 236.94 754.33 236.848C754.153 236.756 753.944 236.711 753.703 236.711C753.477 236.711 753.264 236.752 753.064 236.835C752.866 236.916 752.704 237.035 752.578 237.19C752.453 237.343 752.384 237.529 752.374 237.746H751.607C751.619 237.403 751.723 237.103 751.917 236.845C752.111 236.585 752.364 236.383 752.677 236.238C752.993 236.093 753.339 236.02 753.716 236.02C754.121 236.02 754.468 236.102 754.758 236.266C755.048 236.428 755.27 236.642 755.426 236.909C755.581 237.175 755.659 237.463 755.659 237.772C755.659 238.14 755.562 238.455 755.368 238.715C755.177 238.975 754.916 239.155 754.585 239.255V239.306C754.999 239.374 755.322 239.55 755.554 239.833C755.786 240.114 755.902 240.463 755.902 240.878C755.902 241.234 755.805 241.554 755.611 241.837C755.42 242.118 755.157 242.34 754.825 242.502C754.493 242.664 754.114 242.745 753.69 242.745ZM759.51 236.11V242.655H758.718V236.941H758.679L757.081 238.002V237.196L758.718 236.11H759.51ZM766.136 242.745C765.714 242.745 765.338 242.672 765.008 242.527C764.679 242.383 764.418 242.181 764.225 241.923C764.033 241.663 763.928 241.362 763.911 241.019H764.717C764.734 241.23 764.806 241.412 764.934 241.565C765.062 241.717 765.229 241.834 765.436 241.917C765.643 242 765.872 242.042 766.123 242.042C766.404 242.042 766.654 241.993 766.871 241.895C767.088 241.797 767.259 241.66 767.382 241.486C767.506 241.311 767.568 241.108 767.568 240.878C767.568 240.638 767.508 240.426 767.389 240.242C767.269 240.057 767.095 239.912 766.864 239.808C766.634 239.703 766.353 239.651 766.021 239.651H765.497V238.948H766.021C766.281 238.948 766.509 238.901 766.705 238.807C766.903 238.714 767.057 238.581 767.168 238.411C767.281 238.241 767.337 238.04 767.337 237.81C767.337 237.589 767.288 237.396 767.19 237.232C767.092 237.068 766.954 236.94 766.775 236.848C766.598 236.756 766.389 236.711 766.149 236.711C765.923 236.711 765.71 236.752 765.509 236.835C765.311 236.916 765.149 237.035 765.024 237.19C764.898 237.343 764.83 237.529 764.819 237.746H764.052C764.065 237.403 764.168 237.103 764.362 236.845C764.556 236.585 764.809 236.383 765.123 236.238C765.438 236.093 765.784 236.02 766.161 236.02C766.566 236.02 766.913 236.102 767.203 236.266C767.493 236.428 767.716 236.642 767.871 236.909C768.027 237.175 768.105 237.463 768.105 237.772C768.105 238.14 768.008 238.455 767.814 238.715C767.622 238.975 767.361 239.155 767.031 239.255V239.306C767.444 239.374 767.767 239.55 767.999 239.833C768.231 240.114 768.347 240.463 768.347 240.878C768.347 241.234 768.25 241.554 768.057 241.837C767.865 242.118 767.603 242.34 767.27 242.502C766.938 242.664 766.56 242.745 766.136 242.745ZM771.79 242.745C771.308 242.745 770.898 242.614 770.559 242.352C770.22 242.087 769.961 241.705 769.782 241.204C769.603 240.701 769.514 240.094 769.514 239.383C769.514 238.675 769.603 238.071 769.782 237.57C769.964 237.068 770.223 236.684 770.562 236.42C770.903 236.153 771.312 236.02 771.79 236.02C772.267 236.02 772.675 236.153 773.014 236.42C773.355 236.684 773.614 237.068 773.793 237.57C773.975 238.071 774.065 238.675 774.065 239.383C774.065 240.094 773.976 240.701 773.797 241.204C773.618 241.705 773.359 242.087 773.02 242.352C772.681 242.614 772.271 242.745 771.79 242.745ZM771.79 242.042C772.267 242.042 772.638 241.812 772.902 241.351C773.166 240.891 773.298 240.235 773.298 239.383C773.298 238.816 773.237 238.333 773.116 237.935C772.997 237.536 772.824 237.233 772.598 237.024C772.374 236.815 772.105 236.711 771.79 236.711C771.317 236.711 770.947 236.944 770.681 237.411C770.414 237.875 770.281 238.532 770.281 239.383C770.281 239.949 770.341 240.431 770.46 240.827C770.579 241.223 770.751 241.525 770.975 241.732C771.2 241.938 771.472 242.042 771.79 242.042ZM775.944 236.11V238.36H775.241V236.11H775.944Z" fill="#0EB4E6"/>
<path d="M778.915 236.288C778.669 236.288 778.453 236.23 778.267 236.112C778.082 235.995 777.938 235.831 777.833 235.621C777.731 235.41 777.679 235.164 777.679 234.882C777.679 234.598 777.731 234.35 777.833 234.138C777.938 233.926 778.082 233.762 778.267 233.644C778.453 233.527 778.669 233.469 778.915 233.469C779.161 233.469 779.376 233.527 779.561 233.644C779.747 233.762 779.891 233.926 779.994 234.138C780.099 234.35 780.151 234.598 780.151 234.882C780.151 235.164 780.099 235.41 779.994 235.621C779.891 235.831 779.747 235.995 779.561 236.112C779.376 236.23 779.161 236.288 778.915 236.288ZM778.915 235.912C779.102 235.912 779.256 235.864 779.376 235.768C779.497 235.672 779.587 235.546 779.645 235.39C779.703 235.234 779.732 235.064 779.732 234.882C779.732 234.7 779.703 234.53 779.645 234.372C779.587 234.215 779.497 234.088 779.376 233.991C779.256 233.894 779.102 233.845 778.915 233.845C778.728 233.845 778.574 233.894 778.453 233.991C778.332 234.088 778.243 234.215 778.185 234.372C778.127 234.53 778.098 234.7 778.098 234.882C778.098 235.064 778.127 235.234 778.185 235.39C778.243 235.546 778.332 235.672 778.453 235.768C778.574 235.864 778.728 235.912 778.915 235.912Z" fill="#0EB4E6"/>
<path d="M753.69 614.523C753.269 614.523 752.893 614.451 752.562 614.306C752.234 614.161 751.973 613.96 751.779 613.702C751.587 613.442 751.483 613.14 751.466 612.797H752.271C752.288 613.008 752.361 613.19 752.489 613.344C752.617 613.495 752.784 613.612 752.991 613.695C753.197 613.778 753.426 613.82 753.678 613.82C753.959 613.82 754.208 613.771 754.426 613.673C754.643 613.575 754.813 613.439 754.937 613.264C755.061 613.089 755.122 612.887 755.122 612.657C755.122 612.416 755.063 612.204 754.943 612.021C754.824 611.835 754.649 611.69 754.419 611.586C754.189 611.482 753.908 611.429 753.575 611.429H753.051V610.726H753.575C753.835 610.726 754.063 610.679 754.259 610.586C754.458 610.492 754.612 610.36 754.723 610.189C754.836 610.019 754.892 609.819 754.892 609.588C754.892 609.367 754.843 609.174 754.745 609.01C754.647 608.846 754.509 608.718 754.33 608.626C754.153 608.535 753.944 608.489 753.703 608.489C753.477 608.489 753.264 608.531 753.064 608.614C752.866 608.695 752.704 608.813 752.578 608.968C752.453 609.122 752.384 609.307 752.374 609.525H751.607C751.619 609.181 751.723 608.881 751.917 608.623C752.111 608.363 752.364 608.161 752.677 608.016C752.993 607.871 753.339 607.799 753.716 607.799C754.121 607.799 754.468 607.881 754.758 608.045C755.048 608.207 755.27 608.421 755.426 608.687C755.581 608.953 755.659 609.241 755.659 609.55C755.659 609.919 755.562 610.233 755.368 610.493C755.177 610.753 754.916 610.933 754.585 611.033V611.084C754.999 611.152 755.322 611.328 755.554 611.612C755.786 611.893 755.902 612.241 755.902 612.657C755.902 613.012 755.805 613.332 755.611 613.615C755.42 613.897 755.157 614.118 754.825 614.28C754.493 614.442 754.114 614.523 753.69 614.523ZM759.51 607.888V614.434H758.718V608.719H758.679L757.081 609.78V608.975L758.718 607.888H759.51ZM763.924 614.434V613.858L766.085 611.493C766.338 611.216 766.547 610.975 766.711 610.771C766.875 610.564 766.997 610.37 767.075 610.189C767.156 610.006 767.197 609.814 767.197 609.614C767.197 609.384 767.141 609.185 767.031 609.016C766.922 608.848 766.773 608.718 766.583 608.626C766.394 608.535 766.181 608.489 765.944 608.489C765.693 608.489 765.473 608.541 765.286 608.646C765.1 608.748 764.956 608.892 764.854 609.077C764.754 609.262 764.704 609.48 764.704 609.729H763.95C763.95 609.346 764.038 609.009 764.215 608.719C764.392 608.429 764.633 608.203 764.937 608.042C765.244 607.88 765.588 607.799 765.97 607.799C766.353 607.799 766.693 607.88 766.989 608.042C767.285 608.203 767.518 608.422 767.686 608.697C767.854 608.972 767.938 609.277 767.938 609.614C767.938 609.855 767.895 610.09 767.807 610.32C767.722 610.548 767.573 610.803 767.36 611.084C767.149 611.363 766.856 611.704 766.481 612.107L765.011 613.679V613.73H768.053V614.434H763.924ZM771.508 614.523C771.027 614.523 770.617 614.392 770.278 614.13C769.939 613.866 769.68 613.483 769.501 612.983C769.322 612.48 769.233 611.873 769.233 611.161C769.233 610.453 769.322 609.849 769.501 609.349C769.682 608.846 769.942 608.462 770.281 608.198C770.622 607.932 771.031 607.799 771.508 607.799C771.986 607.799 772.394 607.932 772.732 608.198C773.073 608.462 773.333 608.846 773.512 609.349C773.693 609.849 773.784 610.453 773.784 611.161C773.784 611.873 773.694 612.48 773.515 612.983C773.336 613.483 773.078 613.866 772.739 614.13C772.4 614.392 771.99 614.523 771.508 614.523ZM771.508 613.82C771.986 613.82 772.356 613.59 772.621 613.13C772.885 612.669 773.017 612.013 773.017 611.161C773.017 610.594 772.956 610.112 772.835 609.713C772.715 609.315 772.543 609.011 772.317 608.802C772.093 608.593 771.824 608.489 771.508 608.489C771.035 608.489 770.666 608.722 770.399 609.189C770.133 609.653 770 610.311 770 611.161C770 611.728 770.059 612.209 770.179 612.605C770.298 613.002 770.47 613.303 770.693 613.51C770.919 613.717 771.191 613.82 771.508 613.82ZM775.663 607.888V610.138H774.96V607.888H775.663Z" fill="#0EB4E6"/>
<path d="M778.552 606.211C778.305 606.211 778.089 606.153 777.903 606.036C777.719 605.918 777.574 605.754 777.47 605.544C777.367 605.333 777.316 605.087 777.316 604.805C777.316 604.521 777.367 604.273 777.47 604.061C777.574 603.849 777.719 603.685 777.903 603.568C778.089 603.45 778.305 603.392 778.552 603.392C778.798 603.392 779.013 603.45 779.198 603.568C779.384 603.685 779.528 603.849 779.631 604.061C779.735 604.273 779.787 604.521 779.787 604.805C779.787 605.087 779.735 605.333 779.631 605.544C779.528 605.754 779.384 605.918 779.198 606.036C779.013 606.153 778.798 606.211 778.552 606.211ZM778.552 605.835C778.739 605.835 778.892 605.787 779.013 605.691C779.134 605.595 779.223 605.469 779.281 605.313C779.339 605.157 779.368 604.987 779.368 604.805C779.368 604.623 779.339 604.453 779.281 604.296C779.223 604.138 779.134 604.011 779.013 603.914C778.892 603.817 778.739 603.768 778.552 603.768C778.365 603.768 778.211 603.817 778.09 603.914C777.969 604.011 777.88 604.138 777.822 604.296C777.764 604.453 777.735 604.623 777.735 604.805C777.735 604.987 777.764 605.157 777.822 605.313C777.88 605.469 777.969 605.595 778.09 605.691C778.211 605.787 778.365 605.835 778.552 605.835Z" fill="#0EB4E6"/>
<path d="M266.879 869.473C266.457 869.473 266.081 869.4 265.751 869.255C265.423 869.11 265.162 868.909 264.968 868.651C264.776 868.391 264.672 868.09 264.655 867.747H265.46C265.477 867.958 265.549 868.14 265.677 868.293C265.805 868.444 265.972 868.562 266.179 868.645C266.386 868.728 266.615 868.769 266.866 868.769C267.147 868.769 267.397 868.72 267.614 868.622C267.831 868.524 268.002 868.388 268.125 868.213C268.249 868.039 268.311 867.836 268.311 867.606C268.311 867.365 268.251 867.153 268.132 866.97C268.012 866.785 267.838 866.64 267.608 866.535C267.378 866.431 267.096 866.379 266.764 866.379H266.24V865.676H266.764C267.024 865.676 267.252 865.629 267.448 865.535C267.646 865.441 267.8 865.309 267.911 865.139C268.024 864.968 268.081 864.768 268.081 864.538C268.081 864.316 268.032 864.123 267.934 863.959C267.836 863.795 267.697 863.668 267.518 863.576C267.341 863.484 267.133 863.438 266.892 863.438C266.666 863.438 266.453 863.48 266.253 863.563C266.054 863.644 265.892 863.762 265.767 863.918C265.641 864.071 265.573 864.257 265.562 864.474H264.795C264.808 864.131 264.911 863.83 265.105 863.573C265.299 863.313 265.553 863.11 265.866 862.965C266.181 862.821 266.527 862.748 266.905 862.748C267.309 862.748 267.657 862.83 267.946 862.994C268.236 863.156 268.459 863.37 268.614 863.637C268.77 863.903 268.848 864.191 268.848 864.5C268.848 864.868 268.751 865.182 268.557 865.442C268.365 865.702 268.104 865.882 267.774 865.982V866.034C268.187 866.102 268.51 866.278 268.742 866.561C268.974 866.842 269.091 867.191 269.091 867.606C269.091 867.962 268.994 868.281 268.8 868.565C268.608 868.846 268.346 869.068 268.014 869.23C267.681 869.392 267.303 869.473 266.879 869.473ZM270.244 868.041V867.389L273.121 862.838H273.594V863.848H273.274L271.101 867.286V867.338H274.974V868.041H270.244ZM273.325 869.383V867.843V867.539V862.838H274.08V869.383H273.325ZM278.703 869.383V868.808L280.864 866.443C281.117 866.166 281.326 865.925 281.49 865.72C281.654 865.514 281.776 865.32 281.855 865.139C281.936 864.955 281.976 864.764 281.976 864.563C281.976 864.333 281.921 864.134 281.81 863.966C281.701 863.797 281.552 863.668 281.363 863.576C281.173 863.484 280.96 863.438 280.723 863.438C280.472 863.438 280.252 863.491 280.065 863.595C279.88 863.697 279.736 863.841 279.633 864.027C279.533 864.212 279.483 864.429 279.483 864.679H278.729C278.729 864.295 278.817 863.958 278.994 863.669C279.171 863.379 279.412 863.153 279.717 862.991C280.023 862.829 280.367 862.748 280.749 862.748C281.132 862.748 281.472 862.829 281.768 862.991C282.065 863.153 282.297 863.371 282.465 863.646C282.633 863.921 282.718 864.227 282.718 864.563C282.718 864.804 282.674 865.04 282.587 865.27C282.501 865.498 282.352 865.752 282.139 866.034C281.928 866.313 281.635 866.654 281.26 867.056L279.79 868.629V868.68H282.833V869.383H278.703ZM286.288 869.473C285.806 869.473 285.396 869.342 285.057 869.079C284.718 868.815 284.459 868.433 284.28 867.932C284.102 867.429 284.012 866.822 284.012 866.11C284.012 865.403 284.102 864.799 284.28 864.298C284.462 863.795 284.722 863.412 285.06 863.148C285.401 862.881 285.81 862.748 286.288 862.748C286.765 862.748 287.173 862.881 287.512 863.148C287.853 863.412 288.113 863.795 288.292 864.298C288.473 864.799 288.563 865.403 288.563 866.11C288.563 866.822 288.474 867.429 288.295 867.932C288.116 868.433 287.857 868.815 287.518 869.079C287.179 869.342 286.769 869.473 286.288 869.473ZM286.288 868.769C286.765 868.769 287.136 868.539 287.4 868.079C287.664 867.619 287.796 866.963 287.796 866.11C287.796 865.544 287.735 865.061 287.614 864.663C287.495 864.264 287.322 863.96 287.096 863.752C286.872 863.543 286.603 863.438 286.288 863.438C285.815 863.438 285.445 863.672 285.179 864.138C284.912 864.603 284.779 865.26 284.779 866.11C284.779 866.677 284.839 867.159 284.958 867.555C285.077 867.951 285.249 868.253 285.473 868.459C285.698 868.666 285.97 868.769 286.288 868.769ZM290.442 862.838V865.088H289.739V862.838H290.442Z" fill="#0EB4E6"/>
<path d="M293.073 864.498C292.827 864.498 292.611 864.44 292.425 864.323C292.24 864.205 292.096 864.042 291.992 863.831C291.889 863.62 291.837 863.374 291.837 863.092C291.837 862.808 291.889 862.56 291.992 862.348C292.096 862.136 292.24 861.972 292.425 861.855C292.611 861.737 292.827 861.679 293.073 861.679C293.319 861.679 293.535 861.737 293.719 861.855C293.905 861.972 294.05 862.136 294.153 862.348C294.257 862.56 294.309 862.808 294.309 863.092C294.309 863.374 294.257 863.62 294.153 863.831C294.05 864.042 293.905 864.205 293.719 864.323C293.535 864.44 293.319 864.498 293.073 864.498ZM293.073 864.122C293.26 864.122 293.414 864.074 293.535 863.978C293.655 863.882 293.745 863.756 293.803 863.6C293.861 863.444 293.89 863.275 293.89 863.092C293.89 862.91 293.861 862.74 293.803 862.583C293.745 862.425 293.655 862.298 293.535 862.201C293.414 862.104 293.26 862.055 293.073 862.055C292.886 862.055 292.732 862.104 292.611 862.201C292.491 862.298 292.401 862.425 292.343 862.583C292.285 862.74 292.256 862.91 292.256 863.092C292.256 863.275 292.285 863.444 292.343 863.6C292.401 863.756 292.491 863.882 292.611 863.978C292.732 864.074 292.886 864.122 293.073 864.122Z" fill="#0EB4E6"/>
<path d="M591.035 869.86C590.613 869.86 590.237 869.788 589.907 869.643C589.578 869.498 589.317 869.297 589.123 869.039C588.932 868.779 588.827 868.478 588.81 868.135H589.616C589.633 868.346 589.705 868.528 589.833 868.681C589.961 868.832 590.128 868.95 590.335 869.033C590.541 869.116 590.771 869.157 591.022 869.157C591.303 869.157 591.552 869.108 591.77 869.01C591.987 868.912 592.158 868.776 592.281 868.601C592.405 868.427 592.467 868.224 592.467 867.994C592.467 867.753 592.407 867.541 592.288 867.358C592.168 867.173 591.994 867.028 591.763 866.923C591.533 866.819 591.252 866.767 590.92 866.767H590.396V866.064H590.92C591.18 866.064 591.408 866.017 591.604 865.923C591.802 865.829 591.956 865.697 592.067 865.527C592.18 865.356 592.236 865.156 592.236 864.926C592.236 864.704 592.187 864.511 592.089 864.347C591.991 864.183 591.853 864.055 591.674 863.964C591.497 863.872 591.288 863.826 591.047 863.826C590.822 863.826 590.609 863.868 590.408 863.951C590.21 864.032 590.048 864.15 589.922 864.306C589.797 864.459 589.729 864.645 589.718 864.862H588.951C588.964 864.519 589.067 864.218 589.261 863.961C589.455 863.701 589.708 863.498 590.022 863.353C590.337 863.208 590.683 863.136 591.06 863.136C591.465 863.136 591.812 863.218 592.102 863.382C592.392 863.544 592.615 863.758 592.77 864.025C592.926 864.291 593.003 864.579 593.003 864.887C593.003 865.256 592.907 865.57 592.713 865.83C592.521 866.09 592.26 866.27 591.93 866.37V866.422C592.343 866.49 592.666 866.666 592.898 866.949C593.13 867.23 593.246 867.579 593.246 867.994C593.246 868.35 593.149 868.669 592.956 868.953C592.764 869.234 592.502 869.456 592.169 869.618C591.837 869.78 591.459 869.86 591.035 869.86ZM594.4 868.429V867.777L597.277 863.226H597.75V864.235H597.43L595.257 867.674V867.726H599.13V868.429H594.4ZM597.481 869.771V868.231V867.927V863.226H598.235V869.771H597.481ZM605.071 869.86C604.649 869.86 604.273 869.788 603.943 869.643C603.615 869.498 603.354 869.297 603.16 869.039C602.968 868.779 602.863 868.478 602.846 868.135H603.652C603.669 868.346 603.741 868.528 603.869 868.681C603.997 868.832 604.164 868.95 604.371 869.033C604.578 869.116 604.807 869.157 605.058 869.157C605.339 869.157 605.589 869.108 605.806 869.01C606.023 868.912 606.194 868.776 606.317 868.601C606.441 868.427 606.503 868.224 606.503 867.994C606.503 867.753 606.443 867.541 606.324 867.358C606.204 867.173 606.03 867.028 605.8 866.923C605.569 866.819 605.288 866.767 604.956 866.767H604.432V866.064H604.956C605.216 866.064 605.444 866.017 605.64 865.923C605.838 865.829 605.992 865.697 606.103 865.527C606.216 865.356 606.273 865.156 606.273 864.926C606.273 864.704 606.224 864.511 606.126 864.347C606.028 864.183 605.889 864.055 605.71 863.964C605.533 863.872 605.324 863.826 605.084 863.826C604.858 863.826 604.645 863.868 604.444 863.951C604.246 864.032 604.084 864.15 603.959 864.306C603.833 864.459 603.765 864.645 603.754 864.862H602.987C603 864.519 603.103 864.218 603.297 863.961C603.491 863.701 603.744 863.498 604.058 863.353C604.373 863.208 604.719 863.136 605.096 863.136C605.501 863.136 605.849 863.218 606.138 863.382C606.428 863.544 606.651 863.758 606.806 864.025C606.962 864.291 607.04 864.579 607.04 864.887C607.04 865.256 606.943 865.57 606.749 865.83C606.557 866.09 606.296 866.27 605.966 866.37V866.422C606.379 866.49 606.702 866.666 606.934 866.949C607.166 867.23 607.282 867.579 607.282 867.994C607.282 868.35 607.186 868.669 606.992 868.953C606.8 869.234 606.538 869.456 606.205 869.618C605.873 869.78 605.495 869.86 605.071 869.86ZM610.725 869.86C610.243 869.86 609.833 869.729 609.494 869.467C609.155 869.203 608.896 868.821 608.718 868.32C608.539 867.817 608.449 867.21 608.449 866.498C608.449 865.791 608.539 865.187 608.718 864.686C608.899 864.183 609.159 863.8 609.497 863.536C609.838 863.269 610.247 863.136 610.725 863.136C611.202 863.136 611.61 863.269 611.949 863.536C612.29 863.8 612.55 864.183 612.729 864.686C612.91 865.187 613 865.791 613 866.498C613 867.21 612.911 867.817 612.732 868.32C612.553 868.821 612.294 869.203 611.955 869.467C611.616 869.729 611.206 869.86 610.725 869.86ZM610.725 869.157C611.202 869.157 611.573 868.927 611.837 868.467C612.101 868.007 612.233 867.351 612.233 866.498C612.233 865.932 612.172 865.449 612.051 865.05C611.932 864.652 611.759 864.348 611.533 864.14C611.309 863.931 611.04 863.826 610.725 863.826C610.252 863.826 609.882 864.06 609.616 864.526C609.349 864.991 609.216 865.648 609.216 866.498C609.216 867.065 609.276 867.547 609.395 867.943C609.514 868.339 609.686 868.641 609.91 868.847C610.135 869.054 610.407 869.157 610.725 869.157ZM614.879 863.226V865.476H614.176V863.226H614.879Z" fill="#0EB4E6"/>
<path d="M617.9 864.111C617.654 864.111 617.438 864.052 617.252 863.935C617.067 863.818 616.923 863.654 616.819 863.443C616.716 863.232 616.664 862.986 616.664 862.704C616.664 862.42 616.716 862.172 616.819 861.96C616.923 861.748 617.067 861.584 617.252 861.467C617.438 861.35 617.654 861.291 617.9 861.291C618.146 861.291 618.362 861.35 618.546 861.467C618.732 861.584 618.877 861.748 618.98 861.96C619.084 862.172 619.136 862.42 619.136 862.704C619.136 862.986 619.084 863.232 618.98 863.443C618.877 863.654 618.732 863.818 618.546 863.935C618.362 864.052 618.146 864.111 617.9 864.111ZM617.9 863.734C618.087 863.734 618.241 863.686 618.362 863.59C618.483 863.494 618.572 863.368 618.63 863.212C618.688 863.056 618.717 862.887 618.717 862.704C618.717 862.522 618.688 862.352 618.63 862.195C618.572 862.037 618.483 861.91 618.362 861.813C618.241 861.716 618.087 861.667 617.9 861.667C617.713 861.667 617.559 861.716 617.439 861.813C617.318 861.91 617.228 862.037 617.17 862.195C617.112 862.352 617.083 862.522 617.083 862.704C617.083 862.887 617.112 863.056 617.17 863.212C617.228 863.368 617.318 863.494 617.439 863.59C617.559 863.686 617.713 863.734 617.9 863.734Z" fill="#0EB4E6"/>
<path d="M328.505 657.748C328.507 658.819 327.937 659.809 327.01 660.345C326.083 660.881 324.941 660.881 324.014 660.345C323.088 659.809 322.518 658.819 322.52 657.748C322.518 656.678 323.088 655.688 324.014 655.152C324.941 654.616 326.083 654.616 327.01 655.152C327.937 655.688 328.507 656.678 328.505 657.748Z" fill="black" stroke="black" stroke-width="2.55187" stroke-linejoin="round"/>
<path d="M243.718 601.557C243.72 602.627 243.151 603.617 242.224 604.153C241.297 604.689 240.155 604.689 239.228 604.153C238.301 603.617 237.731 602.627 237.734 601.557C237.731 600.486 238.301 599.496 239.228 598.96C240.155 598.425 241.297 598.425 242.224 598.96C243.151 599.496 243.72 600.486 243.718 601.557Z" fill="black" stroke="black" stroke-width="2.55187" stroke-linejoin="round"/>
<path d="M149.623 750.182C149.625 751.252 149.055 752.242 148.128 752.778C147.201 753.314 146.059 753.314 145.132 752.778C144.206 752.242 143.636 751.252 143.638 750.182C143.636 749.111 144.206 748.121 145.132 747.585C146.059 747.05 147.201 747.05 148.128 747.585C149.055 748.121 149.625 749.111 149.623 750.182Z" fill="black" stroke="black" stroke-width="2.55187" stroke-linejoin="round"/>
<path d="M328.505 420.015C328.507 421.085 327.937 422.075 327.01 422.611C326.083 423.147 324.941 423.147 324.014 422.611C323.088 422.075 322.518 421.085 322.52 420.015C322.518 418.944 323.088 417.954 324.014 417.418C324.941 416.883 326.083 416.883 327.01 417.418C327.937 417.954 328.507 418.944 328.505 420.015Z" fill="black" stroke="black" stroke-width="2.55187" stroke-linejoin="round"/>
<path d="M559.588 238.473C559.59 239.543 559.02 240.533 558.094 241.069C557.167 241.605 556.024 241.605 555.098 241.069C554.171 240.533 553.601 239.543 553.603 238.473C553.601 237.402 554.171 236.412 555.098 235.876C556.024 235.341 557.167 235.341 558.094 235.876C559.02 236.412 559.59 237.402 559.588 238.473Z" fill="black" stroke="black" stroke-width="2.55187" stroke-linejoin="round"/>
<path d="M182.241 878.938H164.468L173.354 863.546L182.241 878.938Z" fill="black" stroke="black" stroke-width="1.27593"/>
<path d="M329 724C356.614 724 379 701.614 379 674C379 646.386 356.614 624 329 624C301.386 624 279 646.386 279 674C279 701.614 301.386 724 329 724Z" fill="#ED2E38"/>
<path d="M462 350C489.614 350 512 327.614 512 300C512 272.386 489.614 250 462 250C434.386 250 412 272.386 412 300C412 327.614 434.386 350 462 350Z" fill="#ED2E38"/>
<path d="M319 503C346.614 503 369 480.614 369 453C369 425.386 346.614 403 319 403C291.386 403 269 425.386 269 453C269 480.614 291.386 503 319 503Z" fill="#ED2E38"/>
</g>
<defs>
<clipPath id="clip0_94_171">
<rect width="838.94" height="905.789" fill="white"/>
</clipPath>
</defs>
</svg>
