<svg width="879" height="1088" viewBox="0 0 879 1088" fill="none" xmlns="http://www.w3.org/2000/svg">
<rect width="879" height="1088" rx="100" fill="#1E1E1E"/>
<path d="M555.968 253.71L600.685 189.075L619.938 158L697.468 230.197L721.793 266.14L722 306.226L706.163 334.298L654.511 346.624L635.464 335.54L619.834 324.664L612.174 322.178L601.202 320.728L596.441 317.724L591.679 309.748L590.126 298.872L587.746 292.243L582.26 284.474L561.764 262.204L555.968 253.71Z" fill="white"/>
<path d="M489.41 506.557L488.168 480.869L481.026 453.834L475.126 444.718L469.226 441.818L442.83 434.153L411.259 432.806L421.61 418.305L435.481 402.042L474.712 358.641L555.968 253.713L561.765 262.206L582.26 284.477L587.746 292.245L590.127 298.874L591.679 309.75L596.441 317.727L601.203 320.731L612.175 322.18L619.835 324.666L635.465 335.543L654.511 346.626L489.41 506.557Z" fill="white"/>
<path d="M408.671 620.188L392.523 617.598L387.762 614.698L372.546 599.471L368.716 596.985L310.749 575.958L299.881 569.64L293.256 562.285L309.611 547.266L342.838 512.566L369.13 483.666L411.259 432.807L442.83 434.154L469.225 441.819L475.125 444.719L481.025 453.834L488.168 480.87L489.41 506.558L475.125 520.334L415.71 596.778L408.671 620.188Z" fill="white"/>
<path d="M319.341 858.117L308.679 833.568L298.949 789.338L296.361 782.502L293.153 778.565L286.942 774.318L251.645 757.02L224.525 741.172L172.148 702.432L159.934 696.839L213.035 644.944L274.003 579.687L293.256 562.285L299.881 569.64L310.75 575.958L368.716 596.985L372.546 599.471L387.762 614.698L392.524 617.598L408.671 620.188L400.08 648.984L404.531 708.958L404.945 764.996L385.278 801.146L319.341 858.117Z" fill="white"/>
<path d="M225.56 930L156 699.84L159.933 696.836L172.148 702.429L224.524 741.169L251.644 757.017L286.942 774.316L293.152 778.563L296.361 782.499L298.949 789.335L308.679 833.565L319.341 858.114L305.884 869.715L225.56 930Z" fill="white"/>
</svg>
