<svg width="879" height="1088" viewBox="0 0 879 1088" fill="none" xmlns="http://www.w3.org/2000/svg">
<rect width="879" height="1088" rx="100" fill="#21212C"/>
<path d="M555.968 282.71L600.685 218.075L619.938 187L697.468 259.197L721.793 295.14L722 335.226L706.163 363.298L654.511 375.624L635.464 364.54L619.834 353.664L612.174 351.178L601.202 349.728L596.441 346.724L591.679 338.748L590.126 327.872L587.746 321.243L582.26 313.474L561.764 291.204L555.968 282.71Z" fill="white"/>
<path d="M489.41 535.557L488.168 509.869L481.026 482.834L475.126 473.719L469.226 470.818L442.83 463.153L411.259 461.807L421.61 447.305L435.481 431.043L474.712 387.642L555.968 282.713L561.765 291.206L582.26 313.477L587.746 321.246L590.127 327.875L591.679 338.751L596.441 346.727L601.203 349.731L612.175 351.181L619.835 353.667L635.465 364.543L654.511 375.626L489.41 535.557Z" fill="white"/>
<path d="M408.671 649.187L392.523 646.598L387.762 643.697L372.546 628.471L368.716 625.985L310.75 604.958L299.881 598.639L293.256 591.285L309.611 576.265L342.838 541.565L369.13 512.666L411.259 461.807L442.83 463.153L469.225 470.818L475.125 473.719L481.026 482.834L488.168 509.869L489.41 535.557L475.125 549.334L415.71 625.778L408.671 649.187Z" fill="white"/>
<path d="M319.341 887.117L308.679 862.568L298.949 818.338L296.361 811.502L293.153 807.565L286.942 803.318L251.645 786.02L224.525 770.172L172.148 731.432L159.934 725.839L213.035 673.944L274.003 608.687L293.256 591.285L299.881 598.64L310.75 604.958L368.716 625.985L372.546 628.471L387.762 643.698L392.524 646.598L408.671 649.188L400.08 677.984L404.531 737.958L404.945 793.996L385.278 830.146L319.341 887.117Z" fill="white"/>
<path d="M225.56 959L156 728.84L159.933 725.836L172.148 731.429L224.524 770.169L251.644 786.017L286.942 803.315L293.152 807.562L296.361 811.499L298.949 818.335L308.679 862.565L319.341 887.114L305.884 898.715L225.56 959Z" fill="white"/>
<path d="M221 772C237.016 772 250 759.016 250 743C250 726.984 237.016 714 221 714C204.984 714 192 726.984 192 743C192 759.016 204.984 772 221 772Z" fill="#ED2E38"/>
<path d="M294 685C310.016 685 323 672.016 323 656C323 639.984 310.016 627 294 627C277.984 627 265 639.984 265 656C265 672.016 277.984 685 294 685Z" fill="#ED2E38"/>
<path d="M373 587C389.016 587 402 574.016 402 558C402 541.984 389.016 529 373 529C356.984 529 344 541.984 344 558C344 574.016 356.984 587 373 587Z" fill="#ED2E38"/>
<path d="M455 549C471.016 549 484 536.016 484 520C484 503.984 471.016 491 455 491C438.984 491 426 503.984 426 520C426 536.016 438.984 549 455 549Z" fill="#ED2E38"/>
<path d="M502 458C518.016 458 531 445.016 531 429C531 412.984 518.016 400 502 400C485.984 400 473 412.984 473 429C473 445.016 485.984 458 502 458Z" fill="#ED2E38"/>
<path d="M586 337C602.016 337 615 324.016 615 308C615 291.984 602.016 279 586 279C569.984 279 557 291.984 557 308C557 324.016 569.984 337 586 337Z" fill="#ED2E38"/>
<path d="M677 348C693.016 348 706 335.016 706 319C706 302.984 693.016 290 677 290C660.984 290 648 302.984 648 319C648 335.016 660.984 348 677 348Z" fill="#ED2E38"/>
<path d="M352 795C368.016 795 381 782.016 381 766C381 749.984 368.016 737 352 737C335.984 737 323 749.984 323 766C323 782.016 335.984 795 352 795Z" fill="#ED2E38"/>
<path d="M250 893C266.016 893 279 880.016 279 864C279 847.984 266.016 835 250 835C233.984 835 221 847.984 221 864C221 880.016 233.984 893 250 893Z" fill="#ED2E38"/>
<path d="M577 429C593.016 429 606 416.016 606 400C606 383.984 593.016 371 577 371C560.984 371 548 383.984 548 400C548 416.016 560.984 429 577 429Z" fill="#ED2E38"/>
</svg>
