<svg width="879" height="1088" viewBox="0 0 879 1088" fill="none" xmlns="http://www.w3.org/2000/svg">
<rect width="879" height="1088" rx="100" fill="#21212C"/>
<path d="M555.968 297.71L600.685 233.075L619.938 202L697.468 274.197L721.793 310.14L722 350.226L706.163 378.298L654.511 390.624L635.464 379.54L619.834 368.664L612.174 366.178L601.202 364.728L596.441 361.724L591.679 353.748L590.126 342.872L587.746 336.243L582.26 328.474L561.764 306.204L555.968 297.71Z" fill="white"/>
<path d="M489.41 550.557L488.168 524.869L481.026 497.834L475.126 488.719L469.226 485.818L442.83 478.153L411.259 476.807L421.61 462.305L435.481 446.043L474.712 402.642L555.968 297.713L561.765 306.206L582.26 328.477L587.746 336.246L590.127 342.875L591.679 353.751L596.441 361.727L601.203 364.731L612.175 366.181L619.835 368.667L635.465 379.543L654.511 390.626L489.41 550.557Z" fill="white"/>
<path d="M408.671 664.187L392.523 661.598L387.762 658.697L372.546 643.471L368.716 640.985L310.75 619.958L299.881 613.639L293.256 606.285L309.611 591.265L342.838 556.565L369.13 527.666L411.259 476.807L442.83 478.153L469.225 485.818L475.125 488.719L481.026 497.834L488.168 524.869L489.41 550.557L475.125 564.334L415.71 640.778L408.671 664.187Z" fill="white"/>
<path d="M319.341 902.117L308.679 877.568L298.949 833.338L296.361 826.502L293.153 822.565L286.942 818.318L251.645 801.02L224.525 785.172L172.148 746.432L159.934 740.839L213.035 688.944L274.003 623.687L293.256 606.285L299.881 613.64L310.75 619.958L368.716 640.985L372.546 643.471L387.762 658.698L392.524 661.598L408.671 664.188L400.08 692.984L404.531 752.958L404.945 808.996L385.278 845.146L319.341 902.117Z" fill="white"/>
<path d="M225.56 974L156 743.84L159.933 740.836L172.148 746.429L224.524 785.169L251.644 801.017L286.942 818.315L293.152 822.562L296.361 826.499L298.949 833.335L308.679 877.565L319.341 902.114L305.884 913.715L225.56 974Z" fill="white"/>
<path d="M218 781C232.359 781 244 769.359 244 755C244 740.641 232.359 729 218 729C203.641 729 192 740.641 192 755C192 769.359 203.641 781 218 781Z" fill="#ED2E38"/>
<path d="M256 894C270.359 894 282 882.359 282 868C282 853.641 270.359 842 256 842C241.641 842 230 853.641 230 868C230 882.359 241.641 894 256 894Z" fill="#ED2E38"/>
<path d="M360 822C374.359 822 386 810.359 386 796C386 781.641 374.359 770 360 770C345.641 770 334 781.641 334 796C334 810.359 345.641 822 360 822Z" fill="#ED2E38"/>
<path d="M281.5 695C295.583 695 307 683.583 307 669.5C307 655.417 295.583 644 281.5 644C267.417 644 256 655.417 256 669.5C256 683.583 267.417 695 281.5 695Z" fill="#ED2E38"/>
<path d="M358.5 746C372.583 746 384 734.583 384 720.5C384 706.417 372.583 695 358.5 695C344.417 695 333 706.417 333 720.5C333 734.583 344.417 746 358.5 746Z" fill="#ED2E38"/>
<path d="M505.5 445C519.583 445 531 433.583 531 419.5C531 405.417 519.583 394 505.5 394C491.417 394 480 405.417 480 419.5C480 433.583 491.417 445 505.5 445Z" fill="#ED2E38"/>
<path d="M576.5 445C590.583 445 602 433.583 602 419.5C602 405.417 590.583 394 576.5 394C562.417 394 551 405.417 551 419.5C551 433.583 562.417 445 576.5 445Z" fill="#ED2E38"/>
<path d="M627.5 282C641.583 282 653 270.583 653 256.5C653 242.417 641.583 231 627.5 231C613.417 231 602 242.417 602 256.5C602 270.583 613.417 282 627.5 282Z" fill="#ED2E38"/>
<path d="M341.5 685C355.583 685 367 673.583 367 659.5C367 645.417 355.583 634 341.5 634C327.417 634 316 645.417 316 659.5C316 673.583 327.417 685 341.5 685Z" fill="#ED2E38"/>
<path d="M602.5 372C616.583 372 628 360.583 628 346.5C628 332.417 616.583 321 602.5 321C588.417 321 577 332.417 577 346.5C577 360.583 588.417 372 602.5 372Z" fill="#ED2E38"/>
<path d="M290.5 758C304.583 758 316 746.583 316 732.5C316 718.417 304.583 707 290.5 707C276.417 707 265 718.417 265 732.5C265 746.583 276.417 758 290.5 758Z" fill="#ED2E38"/>
<path d="M283 822C297.359 822 309 810.359 309 796C309 781.641 297.359 770 283 770C268.641 770 257 781.641 257 796C257 810.359 268.641 822 283 822Z" fill="#ED2E38"/>
</svg>
