<svg width="879" height="1088" viewBox="0 0 879 1088" fill="none" xmlns="http://www.w3.org/2000/svg">
<rect width="879" height="1088" rx="100" fill="#21212C"/>
<path d="M555.968 253.71L600.685 189.075L619.938 158L697.468 230.197L721.793 266.14L722 306.226L706.163 334.298L654.511 346.624L635.464 335.54L619.834 324.664L612.174 322.178L601.202 320.728L596.441 317.724L591.679 309.748L590.126 298.872L587.746 292.243L582.26 284.474L561.764 262.204L555.968 253.71Z" fill="white"/>
<path d="M489.41 506.557L488.168 480.869L481.026 453.834L475.126 444.718L469.226 441.818L442.83 434.153L411.259 432.806L421.61 418.305L435.481 402.042L474.712 358.641L555.968 253.713L561.765 262.206L582.26 284.477L587.746 292.245L590.127 298.874L591.679 309.75L596.441 317.726L601.203 320.73L612.175 322.18L619.835 324.666L635.465 335.543L654.511 346.626L489.41 506.557Z" fill="white"/>
<path d="M408.671 620.188L392.523 617.598L387.762 614.698L372.546 599.471L368.716 596.985L310.75 575.958L299.881 569.64L293.256 562.285L309.611 547.266L342.838 512.566L369.13 483.666L411.259 432.807L442.83 434.154L469.225 441.819L475.125 444.719L481.026 453.834L488.168 480.87L489.41 506.558L475.125 520.334L415.71 596.778L408.671 620.188Z" fill="white"/>
<path d="M319.341 858.117L308.679 833.568L298.949 789.338L296.361 782.502L293.153 778.565L286.942 774.318L251.645 757.02L224.525 741.172L172.148 702.432L159.934 696.839L213.035 644.944L274.003 579.687L293.256 562.285L299.881 569.64L310.75 575.958L368.716 596.985L372.546 599.471L387.762 614.698L392.524 617.598L408.671 620.188L400.08 648.984L404.531 708.958L404.945 764.996L385.278 801.146L319.341 858.117Z" fill="white"/>
<path d="M225.56 930L156 699.84L159.933 696.836L172.148 702.429L224.524 741.169L251.644 757.018L286.942 774.316L293.152 778.563L296.361 782.499L298.949 789.335L308.679 833.565L319.341 858.114L305.884 869.715L225.56 930Z" fill="white"/>
<path d="M383 748C385.761 748 388 745.761 388 743C388 740.239 385.761 738 383 738C380.239 738 378 740.239 378 743C378 745.761 380.239 748 383 748Z" fill="#ED2E38"/>
<path d="M340 615C342.761 615 345 612.761 345 610C345 607.239 342.761 605 340 605C337.239 605 335 607.239 335 610C335 612.761 337.239 615 340 615Z" fill="#ED2E38"/>
<path d="M479 440C481.761 440 484 437.761 484 435C484 432.239 481.761 430 479 430C476.239 430 474 432.239 474 435C474 437.761 476.239 440 479 440Z" fill="#ED2E38"/>
<path d="M618 265C620.761 265 623 262.761 623 260C623 257.239 620.761 255 618 255C615.239 255 613 257.239 613 260C613 262.761 615.239 265 618 265Z" fill="#ED2E38"/>
<path d="M689 330C691.761 330 694 327.761 694 325C694 322.239 691.761 320 689 320C686.239 320 684 322.239 684 325C684 327.761 686.239 330 689 330Z" fill="#ED2E38"/>
<path d="M172 706C174.761 706 177 703.761 177 701C177 698.239 174.761 696 172 696C169.239 696 167 698.239 167 701C167 703.761 169.239 706 172 706Z" fill="#ED2E38"/>
<path d="M246 887C248.761 887 251 884.761 251 882C251 879.239 248.761 877 246 877C243.239 877 241 879.239 241 882C241 884.761 243.239 887 246 887Z" fill="#ED2E38"/>
<path d="M276 743C278.761 743 281 740.761 281 738C281 735.239 278.761 733 276 733C273.239 733 271 735.239 271 738C271 740.761 273.239 743 276 743Z" fill="#ED2E38"/>
<path d="M393 500C395.761 500 398 497.761 398 495C398 492.239 395.761 490 393 490C390.239 490 388 492.239 388 495C388 497.761 390.239 500 393 500Z" fill="#ED2E38"/>
<path d="M578 389C580.761 389 583 386.761 583 384C583 381.239 580.761 379 578 379C575.239 379 573 381.239 573 384C573 386.761 575.239 389 578 389Z" fill="#ED2E38"/>
</svg>
