<svg width="879" height="1088" viewBox="0 0 879 1088" fill="none" xmlns="http://www.w3.org/2000/svg">
<rect width="879" height="1088" rx="100" fill="#21212C"/>
<path d="M555.968 282.71L600.685 218.075L619.938 187L697.468 259.197L721.793 295.14L722 335.226L706.163 363.298L654.511 375.624L635.464 364.54L619.834 353.664L612.174 351.178L601.202 349.728L596.441 346.724L591.679 338.748L590.126 327.872L587.746 321.243L582.26 313.474L561.764 291.204L555.968 282.71Z" fill="white"/>
<path d="M489.41 535.557L488.168 509.869L481.026 482.834L475.126 473.719L469.226 470.818L442.83 463.153L411.259 461.807L421.61 447.305L435.481 431.043L474.712 387.642L555.968 282.713L561.765 291.206L582.26 313.477L587.746 321.246L590.127 327.875L591.679 338.751L596.441 346.727L601.203 349.731L612.175 351.181L619.835 353.667L635.465 364.543L654.511 375.626L489.41 535.557Z" fill="white"/>
<path d="M408.671 649.187L392.523 646.598L387.762 643.697L372.546 628.471L368.716 625.985L310.75 604.958L299.881 598.639L293.256 591.285L309.611 576.265L342.838 541.565L369.13 512.666L411.259 461.807L442.83 463.153L469.225 470.818L475.125 473.719L481.026 482.834L488.168 509.869L489.41 535.557L475.125 549.334L415.71 625.778L408.671 649.187Z" fill="white"/>
<path d="M319.341 887.117L308.679 862.568L298.949 818.338L296.361 811.502L293.153 807.565L286.942 803.318L251.645 786.02L224.525 770.172L172.148 731.432L159.934 725.839L213.035 673.944L274.003 608.687L293.256 591.285L299.881 598.64L310.75 604.958L368.716 625.985L372.546 628.471L387.762 643.698L392.524 646.598L408.671 649.188L400.08 677.984L404.531 737.958L404.945 793.996L385.278 830.146L319.341 887.117Z" fill="white"/>
<path d="M225.56 959L156 728.84L159.933 725.836L172.148 731.429L224.524 770.169L251.644 786.017L286.942 803.315L293.152 807.562L296.361 811.499L298.949 818.335L308.679 862.565L319.341 887.114L305.884 898.715L225.56 959Z" fill="white"/>
<path d="M223.5 777C240.897 777 255 762.897 255 745.5C255 728.103 240.897 714 223.5 714C206.103 714 192 728.103 192 745.5C192 762.897 206.103 777 223.5 777Z" fill="#ED2E38"/>
<path d="M616.5 311C633.897 311 648 296.897 648 279.5C648 262.103 633.897 248 616.5 248C599.103 248 585 262.103 585 279.5C585 296.897 599.103 311 616.5 311Z" fill="#ED2E38"/>
<path d="M553.5 421C570.897 421 585 406.897 585 389.5C585 372.103 570.897 358 553.5 358C536.103 358 522 372.103 522 389.5C522 406.897 536.103 421 553.5 421Z" fill="#ED2E38"/>
<path d="M376.5 604C393.897 604 408 589.897 408 572.5C408 555.103 393.897 541 376.5 541C359.103 541 345 555.103 345 572.5C345 589.897 359.103 604 376.5 604Z" fill="#ED2E38"/>
<path d="M345.5 796C362.897 796 377 781.897 377 764.5C377 747.103 362.897 733 345.5 733C328.103 733 314 747.103 314 764.5C314 781.897 328.103 796 345.5 796Z" fill="#ED2E38"/>
<path d="M254.5 910C271.897 910 286 895.897 286 878.5C286 861.103 271.897 847 254.5 847C237.103 847 223 861.103 223 878.5C223 895.897 237.103 910 254.5 910Z" fill="#ED2E38"/>
<path d="M303.5 704C320.897 704 335 689.897 335 672.5C335 655.103 320.897 641 303.5 641C286.103 641 272 655.103 272 672.5C272 689.897 286.103 704 303.5 704Z" fill="#ED2E38"/>
<path d="M463.5 502C480.897 502 495 487.897 495 470.5C495 453.103 480.897 439 463.5 439C446.103 439 432 453.103 432 470.5C432 487.897 446.103 502 463.5 502Z" fill="#ED2E38"/>
</svg>
