<svg width="879" height="1088" viewBox="0 0 879 1088" fill="none" xmlns="http://www.w3.org/2000/svg">
<rect width="879" height="1088" rx="100" fill="#21212C"/>
<path d="M555.968 297.71L600.685 233.075L619.938 202L697.468 274.197L721.793 310.14L722 350.226L706.163 378.298L654.511 390.624L635.464 379.54L619.834 368.664L612.174 366.178L601.202 364.728L596.441 361.724L591.679 353.748L590.126 342.872L587.746 336.243L582.26 328.474L561.764 306.204L555.968 297.71Z" fill="white"/>
<path d="M489.41 550.557L488.168 524.869L481.026 497.834L475.126 488.719L469.226 485.818L442.83 478.153L411.259 476.807L421.61 462.305L435.481 446.043L474.712 402.642L555.968 297.713L561.765 306.206L582.26 328.477L587.746 336.246L590.127 342.875L591.679 353.751L596.441 361.727L601.203 364.731L612.175 366.181L619.835 368.667L635.465 379.543L654.511 390.626L489.41 550.557Z" fill="white"/>
<path d="M408.671 664.187L392.523 661.598L387.762 658.697L372.546 643.471L368.716 640.985L310.75 619.958L299.881 613.639L293.256 606.285L309.611 591.265L342.838 556.565L369.13 527.666L411.259 476.807L442.83 478.153L469.225 485.818L475.125 488.719L481.026 497.834L488.168 524.869L489.41 550.557L475.125 564.334L415.71 640.778L408.671 664.187Z" fill="white"/>
<path d="M319.341 902.117L308.679 877.568L298.949 833.338L296.361 826.502L293.153 822.565L286.942 818.318L251.645 801.02L224.525 785.172L172.148 746.432L159.934 740.839L213.035 688.944L274.003 623.687L293.256 606.285L299.881 613.64L310.75 619.958L368.716 640.985L372.546 643.471L387.762 658.698L392.524 661.598L408.671 664.188L400.08 692.984L404.531 752.958L404.945 808.996L385.278 845.146L319.341 902.117Z" fill="white"/>
<path d="M225.56 974L156 743.84L159.933 740.836L172.148 746.429L224.524 785.169L251.644 801.017L286.942 818.315L293.152 822.562L296.361 826.499L298.949 833.335L308.679 877.565L319.341 902.114L305.884 913.715L225.56 974Z" fill="white"/>
<path d="M221 787C237.016 787 250 774.016 250 758C250 741.984 237.016 729 221 729C204.984 729 192 741.984 192 758C192 774.016 204.984 787 221 787Z" fill="#ED2E38"/>
<path d="M294 700C310.016 700 323 687.016 323 671C323 654.984 310.016 642 294 642C277.984 642 265 654.984 265 671C265 687.016 277.984 700 294 700Z" fill="#ED2E38"/>
<path d="M373 602C389.016 602 402 589.016 402 573C402 556.984 389.016 544 373 544C356.984 544 344 556.984 344 573C344 589.016 356.984 602 373 602Z" fill="#ED2E38"/>
<path d="M455 564C471.016 564 484 551.016 484 535C484 518.984 471.016 506 455 506C438.984 506 426 518.984 426 535C426 551.016 438.984 564 455 564Z" fill="#ED2E38"/>
<path d="M502 473C518.016 473 531 460.016 531 444C531 427.984 518.016 415 502 415C485.984 415 473 427.984 473 444C473 460.016 485.984 473 502 473Z" fill="#ED2E38"/>
<path d="M586 352C602.016 352 615 339.016 615 323C615 306.984 602.016 294 586 294C569.984 294 557 306.984 557 323C557 339.016 569.984 352 586 352Z" fill="#ED2E38"/>
<path d="M677 363C693.016 363 706 350.016 706 334C706 317.984 693.016 305 677 305C660.984 305 648 317.984 648 334C648 350.016 660.984 363 677 363Z" fill="#ED2E38"/>
<path d="M352 810C368.016 810 381 797.016 381 781C381 764.984 368.016 752 352 752C335.984 752 323 764.984 323 781C323 797.016 335.984 810 352 810Z" fill="#ED2E38"/>
<path d="M250 908C266.016 908 279 895.016 279 879C279 862.984 266.016 850 250 850C233.984 850 221 862.984 221 879C221 895.016 233.984 908 250 908Z" fill="#ED2E38"/>
<path d="M577 444C593.016 444 606 431.016 606 415C606 398.984 593.016 386 577 386C560.984 386 548 398.984 548 415C548 431.016 560.984 444 577 444Z" fill="#ED2E38"/>
</svg>
