<svg width="879" height="1088" viewBox="0 0 879 1088" fill="none" xmlns="http://www.w3.org/2000/svg">
<rect width="879" height="1088" rx="100" fill="#21212C"/>
<path d="M555.968 282.71L600.685 218.075L619.938 187L697.468 259.197L721.793 295.14L722 335.226L706.163 363.298L654.511 375.624L635.464 364.54L619.834 353.664L612.174 351.178L601.202 349.728L596.441 346.724L591.679 338.748L590.126 327.872L587.746 321.243L582.26 313.474L561.764 291.204L555.968 282.71Z" fill="white"/>
<path d="M489.41 535.557L488.168 509.869L481.026 482.834L475.126 473.719L469.226 470.818L442.83 463.153L411.259 461.807L421.61 447.305L435.481 431.043L474.712 387.642L555.968 282.713L561.765 291.206L582.26 313.477L587.746 321.246L590.127 327.875L591.679 338.751L596.441 346.727L601.203 349.731L612.175 351.181L619.835 353.667L635.465 364.543L654.511 375.626L489.41 535.557Z" fill="white"/>
<path d="M408.671 649.187L392.523 646.598L387.762 643.697L372.546 628.471L368.716 625.985L310.75 604.958L299.881 598.639L293.256 591.285L309.611 576.265L342.838 541.565L369.13 512.666L411.259 461.807L442.83 463.153L469.225 470.818L475.125 473.719L481.026 482.834L488.168 509.869L489.41 535.557L475.125 549.334L415.71 625.778L408.671 649.187Z" fill="white"/>
<path d="M319.341 887.117L308.679 862.568L298.949 818.338L296.361 811.502L293.153 807.565L286.942 803.318L251.645 786.02L224.525 770.172L172.148 731.432L159.934 725.839L213.035 673.944L274.003 608.687L293.256 591.285L299.881 598.64L310.75 604.958L368.716 625.985L372.546 628.471L387.762 643.698L392.524 646.598L408.671 649.188L400.08 677.984L404.531 737.958L404.945 793.996L385.278 830.146L319.341 887.117Z" fill="white"/>
<path d="M225.56 959L156 728.84L159.933 725.836L172.148 731.429L224.524 770.169L251.644 786.017L286.942 803.315L293.152 807.562L296.361 811.499L298.949 818.335L308.679 862.565L319.341 887.114L305.884 898.715L225.56 959Z" fill="white"/>
<path d="M222.5 775C239.345 775 253 761.345 253 744.5C253 727.655 239.345 714 222.5 714C205.655 714 192 727.655 192 744.5C192 761.345 205.655 775 222.5 775Z" fill="#ED2E38"/>
<path d="M253.5 898C270.345 898 284 884.345 284 867.5C284 850.655 270.345 837 253.5 837C236.655 837 223 850.655 223 867.5C223 884.345 236.655 898 253.5 898Z" fill="#ED2E38"/>
<path d="M344.5 806C361.345 806 375 792.345 375 775.5C375 758.655 361.345 745 344.5 745C327.655 745 314 758.655 314 775.5C314 792.345 327.655 806 344.5 806Z" fill="#ED2E38"/>
<path d="M328.5 660C345.345 660 359 646.345 359 629.5C359 612.655 345.345 599 328.5 599C311.655 599 298 612.655 298 629.5C298 646.345 311.655 660 328.5 660Z" fill="#ED2E38"/>
<path d="M405.5 574C422.345 574 436 560.345 436 543.5C436 526.655 422.345 513 405.5 513C388.655 513 375 526.655 375 543.5C375 560.345 388.655 574 405.5 574Z" fill="#ED2E38"/>
<path d="M484.5 506C501.345 506 515 492.345 515 475.5C515 458.655 501.345 445 484.5 445C467.655 445 454 458.655 454 475.5C454 492.345 467.655 506 484.5 506Z" fill="#ED2E38"/>
<path d="M559.5 382C576.345 382 590 368.345 590 351.5C590 334.655 576.345 321 559.5 321C542.655 321 529 334.655 529 351.5C529 368.345 542.655 382 559.5 382Z" fill="#ED2E38"/>
<path d="M620.5 290C637.345 290 651 276.345 651 259.5C651 242.655 637.345 229 620.5 229C603.655 229 590 242.655 590 259.5C590 276.345 603.655 290 620.5 290Z" fill="#ED2E38"/>
<path d="M671.5 351C688.345 351 702 337.345 702 320.5C702 303.655 688.345 290 671.5 290C654.655 290 641 303.655 641 320.5C641 337.345 654.655 351 671.5 351Z" fill="#ED2E38"/>
</svg>
