<svg width="879" height="1088" viewBox="0 0 879 1088" fill="none" xmlns="http://www.w3.org/2000/svg">
<rect width="879" height="1088" rx="100" fill="#21212C"/>
<path d="M555.968 282.71L600.685 218.075L619.938 187L697.468 259.197L721.793 295.14L722 335.226L706.163 363.298L654.511 375.624L635.464 364.54L619.834 353.664L612.174 351.178L601.202 349.728L596.441 346.724L591.679 338.748L590.126 327.872L587.746 321.243L582.26 313.474L561.764 291.204L555.968 282.71Z" fill="white"/>
<path d="M489.41 535.557L488.168 509.869L481.026 482.834L475.126 473.719L469.226 470.818L442.83 463.153L411.259 461.807L421.61 447.305L435.481 431.043L474.712 387.642L555.968 282.713L561.765 291.206L582.26 313.477L587.746 321.246L590.127 327.875L591.679 338.751L596.441 346.727L601.203 349.731L612.175 351.181L619.835 353.667L635.465 364.543L654.511 375.626L489.41 535.557Z" fill="white"/>
<path d="M408.671 649.187L392.523 646.598L387.762 643.697L372.546 628.471L368.716 625.985L310.75 604.958L299.881 598.639L293.256 591.285L309.611 576.265L342.838 541.565L369.13 512.666L411.259 461.807L442.83 463.153L469.225 470.818L475.125 473.719L481.026 482.834L488.168 509.869L489.41 535.557L475.125 549.334L415.71 625.778L408.671 649.187Z" fill="white"/>
<path d="M319.341 887.117L308.679 862.568L298.949 818.338L296.361 811.502L293.153 807.565L286.942 803.318L251.645 786.02L224.525 770.172L172.148 731.432L159.934 725.839L213.035 673.944L274.003 608.687L293.256 591.285L299.881 598.64L310.75 604.958L368.716 625.985L372.546 628.471L387.762 643.698L392.524 646.598L408.671 649.188L400.08 677.984L404.531 737.958L404.945 793.996L385.278 830.146L319.341 887.117Z" fill="white"/>
<path d="M225.56 959L156 728.84L159.933 725.836L172.148 731.429L224.524 770.169L251.644 786.017L286.942 803.315L293.152 807.562L296.361 811.499L298.949 818.335L308.679 862.565L319.341 887.114L305.884 898.715L225.56 959Z" fill="white"/>
<path d="M201 732C205.971 732 210 727.971 210 723C210 718.029 205.971 714 201 714C196.029 714 192 718.029 192 723C192 727.971 196.029 732 201 732Z" fill="#ED2E38"/>
<path d="M430 507C434.971 507 439 502.971 439 498C439 493.029 434.971 489 430 489C425.029 489 421 493.029 421 498C421 502.971 425.029 507 430 507Z" fill="#ED2E38"/>
<path d="M659 282C663.971 282 668 277.971 668 273C668 268.029 663.971 264 659 264C654.029 264 650 268.029 650 273C650 277.971 654.029 282 659 282Z" fill="#ED2E38"/>
<path d="M692 353C696.971 353 701 348.971 701 344C701 339.029 696.971 335 692 335C687.029 335 683 339.029 683 344C683 348.971 687.029 353 692 353Z" fill="#ED2E38"/>
<path d="M584 300C588.971 300 593 295.971 593 291C593 286.029 588.971 282 584 282C579.029 282 575 286.029 575 291C575 295.971 579.029 300 584 300Z" fill="#ED2E38"/>
<path d="M551 448C555.971 448 560 443.971 560 439C560 434.029 555.971 430 551 430C546.029 430 542 434.029 542 439C542 443.971 546.029 448 551 448Z" fill="#ED2E38"/>
<path d="M362 732C366.971 732 371 727.971 371 723C371 718.029 366.971 714 362 714C357.029 714 353 718.029 353 723C353 727.971 357.029 732 362 732Z" fill="#ED2E38"/>
<path d="M245 914C249.971 914 254 909.971 254 905C254 900.029 249.971 896 245 896C240.029 896 236 900.029 236 905C236 909.971 240.029 914 245 914Z" fill="#ED2E38"/>
<path d="M380 816C384.971 816 389 811.971 389 807C389 802.029 384.971 798 380 798C375.029 798 371 802.029 371 807C371 811.971 375.029 816 380 816Z" fill="#ED2E38"/>
<path d="M344 608C348.971 608 353 603.971 353 599C353 594.029 348.971 590 344 590C339.029 590 335 594.029 335 599C335 603.971 339.029 608 344 608Z" fill="#ED2E38"/>
</svg>
