<svg width="879" height="1088" viewBox="0 0 879 1088" fill="none" xmlns="http://www.w3.org/2000/svg">
<rect width="879" height="1088" rx="100" fill="#21212C"/>
<path d="M555.968 297.71L600.685 233.075L619.938 202L697.468 274.197L721.793 310.14L722 350.226L706.163 378.298L654.511 390.624L635.464 379.54L619.834 368.664L612.174 366.178L601.202 364.728L596.441 361.724L591.679 353.748L590.126 342.872L587.746 336.243L582.26 328.474L561.764 306.204L555.968 297.71Z" fill="white"/>
<path d="M489.41 550.557L488.168 524.869L481.026 497.833L475.126 488.718L469.226 485.818L442.83 478.153L411.259 476.806L421.61 462.305L435.481 446.042L474.712 402.641L555.968 297.712L561.765 306.206L582.26 328.476L587.746 336.245L590.127 342.874L591.679 353.75L596.441 361.726L601.203 364.73L612.175 366.18L619.835 368.666L635.465 379.542L654.511 390.626L489.41 550.557Z" fill="white"/>
<path d="M408.671 664.188L392.523 661.598L387.762 658.698L372.546 643.471L368.716 640.985L310.75 619.958L299.881 613.64L293.256 606.285L309.611 591.266L342.838 556.566L369.13 527.666L411.259 476.807L442.83 478.154L469.225 485.819L475.125 488.719L481.026 497.834L488.168 524.87L489.41 550.558L475.125 564.334L415.71 640.778L408.671 664.188Z" fill="white"/>
<path d="M319.341 902.117L308.679 877.568L298.949 833.338L296.361 826.502L293.153 822.565L286.942 818.318L251.645 801.02L224.525 785.172L172.148 746.432L159.934 740.839L213.035 688.944L274.003 623.687L293.256 606.285L299.881 613.64L310.75 619.958L368.716 640.985L372.546 643.471L387.762 658.698L392.524 661.598L408.671 664.188L400.08 692.984L404.531 752.958L404.945 808.996L385.278 845.146L319.341 902.117Z" fill="white"/>
<path d="M225.56 974L156 743.84L159.933 740.836L172.148 746.429L224.524 785.169L251.644 801.017L286.942 818.315L293.152 822.562L296.361 826.499L298.949 833.335L308.679 877.565L319.341 902.114L305.884 913.715L225.56 974Z" fill="white"/>
<path d="M213 771C224.598 771 234 761.598 234 750C234 738.402 224.598 729 213 729C201.402 729 192 738.402 192 750C192 761.598 201.402 771 213 771Z" fill="#ED2E38"/>
<path d="M246 921C257.598 921 267 911.598 267 900C267 888.402 257.598 879 246 879C234.402 879 225 888.402 225 900C225 911.598 234.402 921 246 921Z" fill="#ED2E38"/>
<path d="M349 845C360.598 845 370 835.598 370 824C370 812.402 360.598 803 349 803C337.402 803 328 812.402 328 824C328 835.598 337.402 845 349 845Z" fill="#ED2E38"/>
<path d="M288 701C299.598 701 309 691.598 309 680C309 668.402 299.598 659 288 659C276.402 659 267 668.402 267 680C267 691.598 276.402 701 288 701Z" fill="#ED2E38"/>
<path d="M622 290C633.598 290 643 280.598 643 269C643 257.402 633.598 248 622 248C610.402 248 601 257.402 601 269C601 280.598 610.402 290 622 290Z" fill="#ED2E38"/>
<path d="M593 416C604.598 416 614 406.598 614 395C614 383.402 604.598 374 593 374C581.402 374 572 383.402 572 395C572 406.598 581.402 416 593 416Z" fill="#ED2E38"/>
<path d="M664 365C675.598 365 685 355.598 685 344C685 332.402 675.598 323 664 323C652.402 323 643 332.402 643 344C643 355.598 652.402 365 664 365Z" fill="#ED2E38"/>
<path d="M460 534C471.598 534 481 524.598 481 513C481 501.402 471.598 492 460 492C448.402 492 439 501.402 439 513C439 524.598 448.402 534 460 534Z" fill="#ED2E38"/>
<path d="M370 622C381.598 622 391 612.598 391 601C391 589.402 381.598 580 370 580C358.402 580 349 589.402 349 601C349 612.598 358.402 622 370 622Z" fill="#ED2E38"/>
<path d="M275 792C286.598 792 296 782.598 296 771C296 759.402 286.598 750 275 750C263.402 750 254 759.402 254 771C254 782.598 263.402 792 275 792Z" fill="#ED2E38"/>
<path d="M512 437C523.598 437 533 427.598 533 416C533 404.402 523.598 395 512 395C500.402 395 491 404.402 491 416C491 427.598 500.402 437 512 437Z" fill="#ED2E38"/>
</svg>
