<svg width="566" height="772" viewBox="0 0 566 772" fill="none" xmlns="http://www.w3.org/2000/svg">
<path d="M399.968 95.7104L444.685 31.0747L463.938 0L541.468 72.197L565.793 108.14L566 148.226L550.163 176.298L498.511 188.624L479.465 177.54L463.834 166.664L456.175 164.178L445.202 162.728L440.441 159.724L435.679 151.748L434.127 140.872L431.746 134.243L426.26 126.474L405.765 104.204L399.968 95.7104Z" fill="#ED2E38"/>
<path d="M333.41 348.557L332.168 322.869L325.026 295.834L319.126 286.718L313.226 283.818L286.83 276.153L255.259 274.806L265.61 260.305L279.481 244.042L318.712 200.641L399.968 95.7126L405.765 104.206L426.26 126.477L431.746 134.245L434.127 140.874L435.679 151.75L440.441 159.726L445.203 162.73L456.175 164.18L463.835 166.666L479.465 177.543L498.511 188.626L333.41 348.557Z" fill="#ED2E38"/>
<path d="M252.671 462.188L236.523 459.598L231.762 456.698L216.546 441.471L212.716 438.985L154.75 417.958L143.881 411.64L137.256 404.285L153.611 389.266L186.838 354.566L213.13 325.666L255.259 274.807L286.83 276.154L313.225 283.819L319.125 286.719L325.026 295.834L332.168 322.87L333.41 348.558L319.125 362.334L259.71 438.778L252.671 462.188Z" fill="#ED2E38"/>
<path d="M163.341 700.117L152.679 675.568L142.949 631.338L140.361 624.502L137.153 620.565L130.942 616.318L95.6445 599.02L68.5245 583.172L16.1478 544.432L3.93347 538.839L57.0348 486.944L118.003 421.687L137.256 404.285L143.881 411.64L154.749 417.958L212.716 438.985L216.546 441.471L231.762 456.698L236.523 459.598L252.671 462.188L244.08 490.984L248.531 550.958L248.945 606.996L229.278 643.146L163.341 700.117Z" fill="#ED2E38"/>
<path d="M69.5596 772L0 541.84L3.93343 538.836L16.1478 544.429L68.5245 583.169L95.6445 599.017L130.942 616.316L137.152 620.563L140.361 624.499L142.949 631.335L152.679 675.565L163.341 700.114L149.884 711.715L69.5596 772Z" fill="#ED2E38"/>
</svg>
